<svg version="1.1" id="Layer_1" xmlns="http://www.w3.org/2000/svg" xmlns:xlink="http://www.w3.org/1999/xlink" x="0px" y="0px"
	 width="100%" viewBox="0 0 382 101" enable-background="new 0 0 382 101" xml:space="preserve">
<path fill="#FEFEFE" opacity="1.000000" stroke="none" 
	d="
M255.000000,102.000000 
	C170.000015,102.000000 85.500038,102.000000 1.000045,102.000000 
	C1.000030,68.333359 1.000030,34.666721 1.000015,1.000063 
	C128.333267,1.000042 255.666550,1.000042 382.999878,1.000021 
	C382.999908,34.666599 382.999908,68.333199 382.999939,101.999901 
	C340.500000,102.000000 298.000000,102.000000 255.000000,102.000000 
M3.368508,55.894993 
	C4.851736,61.546093 6.028885,67.198380 12.722534,69.492180 
	C51.093143,82.641083 89.097252,97.166374 130.758636,95.719994 
	C153.382965,94.934525 176.202072,96.452057 198.629608,94.070564 
	C233.520538,90.365639 267.722626,82.536652 301.432068,72.305283 
	C318.201874,67.215378 335.978363,65.492615 353.229340,61.909092 
	C358.861664,60.739105 364.428955,58.861362 369.701202,56.562428 
	C371.598145,55.735264 373.537140,52.756672 373.611145,50.693703 
	C373.672638,48.980423 371.370880,46.313503 369.514404,45.568832 
	C364.624268,43.607319 359.476440,42.126045 354.306915,41.052044 
	C334.945190,37.029526 315.244843,34.315571 296.196503,29.168026 
	C244.390854,15.168288 192.240387,4.403008 138.177429,7.113157 
	C121.391098,7.954647 104.411560,8.063663 87.915352,10.847728 
	C62.424992,15.149737 38.472500,24.966518 14.975610,35.631538 
	C4.981539,40.167755 2.721523,44.119114 3.368508,55.894993 
z"/>
<path fill="#2563EB" opacity="1.000000" stroke="none" 
	d="
M3.274150,55.479271 
	C2.721523,44.119114 4.981539,40.167755 14.975610,35.631538 
	C38.472500,24.966518 62.424992,15.149737 87.915352,10.847728 
	C104.411560,8.063663 121.391098,7.954647 138.177429,7.113157 
	C192.240387,4.403008 244.390854,15.168288 296.196503,29.168026 
	C315.244843,34.315571 334.945190,37.029526 354.306915,41.052044 
	C359.476440,42.126045 364.624268,43.607319 369.514404,45.568832 
	C371.370880,46.313503 373.672638,48.980423 373.611145,50.693703 
	C373.537140,52.756672 371.598145,55.735264 369.701202,56.562428 
	C364.428955,58.861362 358.861664,60.739105 353.229340,61.909092 
	C335.978363,65.492615 318.201874,67.215378 301.432068,72.305283 
	C267.722626,82.536652 233.520538,90.365639 198.629608,94.070564 
	C176.202072,96.452057 153.382965,94.934525 130.758636,95.719994 
	C89.097252,97.166374 51.093143,82.641083 12.722534,69.492180 
	C6.028885,67.198380 4.851736,61.546093 3.274150,55.479271 
M48.473633,73.065132 
	C64.005127,77.334816 79.342766,84.124779 95.109390,85.337479 
	C125.764862,87.695351 156.709030,88.219353 187.443787,87.079964 
	C217.391907,85.969734 246.620209,78.477394 275.725769,71.394783 
	C294.588043,66.804794 313.374542,61.892845 332.288055,57.528446 
	C342.052643,55.275219 352.020264,53.901825 361.896149,52.130890 
	C361.891754,51.703217 361.887360,51.275539 361.882965,50.847862 
	C359.010925,50.223896 356.144775,49.571453 353.265930,48.980518 
	C332.602081,44.738876 311.765503,41.196331 291.307190,36.126656 
	C254.317780,26.960480 217.454056,16.789961 179.146179,15.774094 
	C151.885040,15.051167 124.431839,15.198271 97.302567,17.622690 
	C68.772026,20.172333 42.636581,32.324684 16.508774,43.563335 
	C11.908874,45.541939 10.896130,49.139252 11.197372,53.181881 
	C11.501717,57.266117 12.370136,61.280113 17.434059,62.844852 
	C27.585623,65.981659 37.610569,69.528229 48.473633,73.065132 
z"/>
<path fill="#FCFCFC" opacity="1.000000" stroke="none" 
	d="
M48.080708,72.985390 
	C37.610569,69.528229 27.585623,65.981659 17.434059,62.844852 
	C12.370136,61.280113 11.501717,57.266117 11.197372,53.181881 
	C10.896130,49.139252 11.908874,45.541939 16.508774,43.563335 
	C42.636581,32.324684 68.772026,20.172333 97.302567,17.622690 
	C124.431839,15.198271 151.885040,15.051167 179.146179,15.774094 
	C217.454056,16.789961 254.317780,26.960480 291.307190,36.126656 
	C311.765503,41.196331 332.602081,44.738876 353.265930,48.980518 
	C356.144775,49.571453 359.010925,50.223896 361.882965,50.847862 
	C361.887360,51.275539 361.891754,51.703217 361.896149,52.130890 
	C352.020264,53.901825 342.052643,55.275219 332.288055,57.528446 
	C313.374542,61.892845 294.588043,66.804794 275.725769,71.394783 
	C246.620209,78.477394 217.391907,85.969734 187.443787,87.079964 
	C156.709030,88.219353 125.764862,87.695351 95.109390,85.337479 
	C79.342766,84.124779 64.005127,77.334816 48.080708,72.985390 
M276.000153,53.091702 
	C276.040466,51.421753 276.080750,49.751804 277.039490,48.001053 
	C282.021240,47.998932 287.009949,47.835461 291.982269,48.051041 
	C295.334320,48.196373 295.400024,46.688469 294.561798,43.918217 
	C288.362457,43.918217 282.241821,43.918217 276.012909,43.110222 
	C276.392395,38.601665 274.313782,36.737816 269.824860,36.958241 
	C265.677277,37.161903 261.511810,36.995018 257.354218,37.002979 
	C250.707855,37.015709 250.280380,37.415329 249.059280,43.998795 
	C247.413162,43.972084 245.767044,43.945374 244.012115,43.110771 
	C244.391342,38.603428 242.314255,36.762383 237.825516,36.955765 
	C233.012329,37.163132 228.182175,37.068970 223.361633,36.982864 
	C219.564987,36.915051 217.925537,38.678993 217.979691,42.434231 
	C218.068390,48.585285 218.037506,54.738792 217.991577,60.890778 
	C217.965073,64.443047 219.672180,66.053024 223.183807,66.008888 
	C227.506378,65.954559 231.830154,66.000282 236.153412,65.996971 
	C243.686615,65.991196 243.947922,65.725792 244.848740,58.000507 
	C246.525284,58.027504 248.201843,58.054504 249.986633,58.906590 
	C250.137222,65.474136 250.645065,65.979156 257.182739,65.996758 
	C260.840424,66.006599 264.498138,66.001175 268.155853,65.997993 
	C275.687378,65.991447 275.949951,65.725266 276.945160,58.000416 
	C282.846802,58.000416 288.748444,58.000416 294.987640,58.000416 
	C294.859589,56.424263 294.765198,55.262558 294.656738,53.927532 
	C288.191772,53.927532 282.101990,53.927532 276.000153,53.091702 
M80.987877,59.889217 
	C80.608673,64.396530 82.685707,66.237625 87.174469,66.044228 
	C91.987648,65.836861 96.817818,65.931030 101.638367,66.017136 
	C105.434982,66.084946 107.074471,64.321037 107.020317,60.565777 
	C106.931602,54.414722 106.962479,48.261219 107.008408,42.109234 
	C107.034927,38.556980 105.327843,36.946972 101.816193,36.991112 
	C97.493629,37.045444 93.169846,36.999729 88.846588,37.003033 
	C81.313416,37.008789 81.052048,37.274246 80.054848,44.999641 
	C74.153206,44.999641 68.251564,44.999641 62.012341,44.999641 
	C62.140385,46.575733 62.234760,47.737434 62.343155,49.071678 
	C68.808250,49.071678 74.898041,49.071678 81.000610,49.907684 
	C80.960144,51.577984 80.919678,53.248280 79.960701,54.998978 
	C74.978912,55.001087 69.990128,55.164539 65.017776,54.948956 
	C61.665794,54.803627 61.599804,56.311378 62.438156,59.081326 
	C68.636688,59.081326 74.757874,59.081326 80.987877,59.889217 
M118.009743,72.320023 
	C117.153305,76.986244 119.156410,78.127899 123.716820,78.094681 
	C152.208313,77.887131 180.702316,77.931946 209.194717,78.062561 
	C212.781494,78.079010 214.145172,77.309502 214.082291,73.403679 
	C213.851685,59.077579 213.875809,44.743950 214.071869,30.416817 
	C214.120987,26.827068 212.950119,25.930017 209.516159,25.943804 
	C180.523743,26.060213 151.530243,26.086317 122.538292,25.921144 
	C118.576508,25.898571 117.886688,27.324423 117.934998,30.862389 
	C118.119232,44.356560 118.009750,57.854740 118.009743,72.320023 
z"/>
<path fill="#2563EB" opacity="1.000000" stroke="none" 
	d="
M118.009865,71.835724 
	C118.009750,57.854740 118.119232,44.356560 117.934998,30.862389 
	C117.886688,27.324423 118.576508,25.898571 122.538292,25.921144 
	C151.530243,26.086317 180.523743,26.060213 209.516159,25.943804 
	C212.950119,25.930017 214.120987,26.827068 214.071869,30.416817 
	C213.875809,44.743950 213.851685,59.077579 214.082291,73.403679 
	C214.145172,77.309502 212.781494,78.079010 209.194717,78.062561 
	C180.702316,77.931946 152.208313,77.887131 123.716820,78.094681 
	C119.156410,78.127899 117.153305,76.986244 118.009865,71.835724 
M148.500000,28.933798 
	C139.433456,28.933798 130.366898,28.933798 121.486565,28.933798 
	C121.486565,44.776329 121.486565,59.827324 121.486565,74.765770 
	C151.407822,74.765770 180.961288,74.765770 210.598114,74.765770 
	C210.598114,59.411945 210.598114,44.360134 210.598114,28.933790 
	C190.045303,28.933790 169.772659,28.933790 148.500000,28.933798 
z"/>
<path fill="#2563EB" opacity="1.000000" stroke="none" 
	d="
M80.879211,54.918579 
	C80.919678,53.248280 80.960144,51.577984 81.000671,49.075378 
	C80.996429,47.138157 80.992134,46.033245 80.987839,44.928329 
	C81.052048,37.274246 81.313416,37.008789 88.846588,37.003033 
	C93.169846,36.999729 97.493629,37.045444 101.816193,36.991112 
	C105.327843,36.946972 107.034927,38.556980 107.008408,42.109234 
	C106.962479,48.261219 106.931602,54.414722 107.020317,60.565777 
	C107.074471,64.321037 105.434982,66.084946 101.638367,66.017136 
	C96.817818,65.931030 91.987648,65.836861 87.174469,66.044228 
	C82.685707,66.237625 80.608673,64.396530 81.304916,59.422234 
	C83.941978,57.137257 83.657799,55.798435 80.879211,54.918579 
M98.370728,41.004520 
	C93.968582,41.004520 89.566437,41.004520 85.351128,41.004520 
	C85.351128,48.413162 85.351128,55.125286 85.351128,61.643433 
	C91.419296,61.643433 97.136078,61.643433 102.995079,61.643433 
	C102.995079,55.660229 102.820862,50.020718 103.065010,44.399384 
	C103.196678,41.367882 101.956047,40.621841 98.370728,41.004520 
z"/>
<path fill="#2563EB" opacity="1.000000" stroke="none" 
	d="
M244.012177,58.071667 
	C243.947922,65.725792 243.686615,65.991196 236.153412,65.996971 
	C231.830154,66.000282 227.506378,65.954559 223.183807,66.008888 
	C219.672180,66.053024 217.965073,64.443047 217.991577,60.890778 
	C218.037506,54.738792 218.068390,48.585285 217.979691,42.434231 
	C217.925537,38.678993 219.564987,36.915051 223.361633,36.982864 
	C228.182175,37.068970 233.012329,37.163132 237.825516,36.955765 
	C242.314255,36.762383 244.391342,38.603428 243.694733,43.577881 
	C241.054703,45.867466 241.343521,47.206306 244.071991,48.497490 
	C244.017029,50.581882 244.015320,52.252239 244.006607,54.337448 
	C244.003815,55.858757 244.007996,56.965214 244.012177,58.071667 
M230.511749,61.995491 
	C233.600891,61.995491 236.690048,61.995491 239.685333,61.995491 
	C239.685333,54.660107 239.685333,47.950115 239.685333,41.319412 
	C233.657761,41.319412 227.944397,41.319412 222.319275,41.319412 
	C222.319275,48.348713 222.319275,55.058994 222.319275,61.995491 
	C224.935257,61.995491 227.238297,61.995491 230.511749,61.995491 
z"/>
<path fill="#2563EB" opacity="1.000000" stroke="none" 
	d="
M276.012207,58.072468 
	C275.949951,65.725266 275.687378,65.991447 268.155853,65.997993 
	C264.498138,66.001175 260.840424,66.006599 257.182739,65.996758 
	C250.645065,65.979156 250.137222,65.474136 250.356812,58.469063 
	C251.859741,58.049038 252.992477,58.066547 254.072327,58.518867 
	C254.662476,59.965855 255.265900,61.823399 255.954880,61.855694 
	C261.195801,62.101334 266.453461,61.990196 271.709473,61.990196 
	C271.709473,54.718246 271.709473,48.006744 271.709473,41.006798 
	C266.476013,41.006798 261.519226,41.115646 256.570740,40.959812 
	C254.179672,40.884514 253.688400,41.894733 253.700897,43.941139 
	C252.144043,43.950367 251.011398,43.934322 249.878754,43.918274 
	C250.280380,37.415329 250.707855,37.015709 257.354218,37.002979 
	C261.511810,36.995018 265.677277,37.161903 269.824860,36.958241 
	C274.313782,36.737816 276.392395,38.601665 275.695282,43.576935 
	C273.057861,45.862373 273.338409,47.202412 276.121033,48.081856 
	C276.080750,49.751804 276.040466,51.421753 275.999298,53.924076 
	C276.003021,55.861790 276.007599,56.967129 276.012207,58.072468 
z"/>
<path fill="#2563EB" opacity="1.000000" stroke="none" 
	d="
M249.469025,43.958534 
	C251.011398,43.934322 252.144043,43.950367 254.148331,43.980259 
	C257.625671,43.994106 260.231354,43.994106 262.837067,43.994106 
	C263.076599,44.546066 263.316162,45.098030 263.555725,45.649990 
	C262.381714,46.433250 261.239594,47.830719 260.028168,47.893623 
	C254.738190,48.168327 249.428070,48.055565 244.125259,48.083458 
	C241.343521,47.206306 241.054703,45.867466 243.749130,43.981827 
	C245.767044,43.945374 247.413162,43.972084 249.469025,43.958534 
z"/>
<path fill="#2563EB" opacity="1.000000" stroke="none" 
	d="
M276.580261,48.041454 
	C273.338409,47.202412 273.057861,45.862373 275.749390,43.980934 
	C282.241821,43.918217 288.362457,43.918217 294.561798,43.918217 
	C295.400024,46.688469 295.334320,48.196373 291.982269,48.051041 
	C287.009949,47.835461 282.021240,47.998932 276.580261,48.041454 
z"/>
<path fill="#2563EB" opacity="1.000000" stroke="none" 
	d="
M80.419952,54.958778 
	C83.657799,55.798435 83.941978,57.137257 81.250504,59.018288 
	C74.757874,59.081326 68.636688,59.081326 62.438156,59.081326 
	C61.599804,56.311378 61.665794,54.803627 65.017776,54.948956 
	C69.990128,55.164539 74.978912,55.001087 80.419952,54.958778 
z"/>
<path fill="#2563EB" opacity="1.000000" stroke="none" 
	d="
M254.125229,58.084053 
	C252.992477,58.066547 251.859741,58.049038 250.302689,58.056519 
	C248.201843,58.054504 246.525284,58.027504 244.430450,58.036087 
	C244.007996,56.965214 244.003815,55.858757 244.421021,54.373295 
	C250.868149,52.478065 256.804077,54.255356 262.760254,54.149746 
	C262.760254,55.573669 262.760254,56.645363 262.760254,58.084053 
	C259.727783,58.084053 256.926514,58.084053 254.125229,58.084053 
z"/>
<path fill="#2563EB" opacity="1.000000" stroke="none" 
	d="
M80.521347,44.963985 
	C80.992134,46.033245 80.996429,47.138157 80.994286,48.657375 
	C74.898041,49.071678 68.808250,49.071678 62.343155,49.071678 
	C62.234760,47.737434 62.140385,46.575733 62.012341,44.999641 
	C68.251564,44.999641 74.153206,44.999641 80.521347,44.963985 
z"/>
<path fill="#2563EB" opacity="1.000000" stroke="none" 
	d="
M276.478668,58.036442 
	C276.007599,56.967129 276.003021,55.861790 276.005310,54.341991 
	C282.101990,53.927532 288.191772,53.927532 294.656738,53.927532 
	C294.765198,55.262558 294.859589,56.424263 294.987640,58.000416 
	C288.748444,58.000416 282.846802,58.000416 276.478668,58.036442 
z"/>
<path fill="#FAFAFA" opacity="1.000000" stroke="none" 
	d="
M149.000000,28.933794 
	C169.772659,28.933790 190.045303,28.933790 210.598114,28.933790 
	C210.598114,44.360134 210.598114,59.411945 210.598114,74.765770 
	C180.961288,74.765770 151.407822,74.765770 121.486565,74.765770 
	C121.486565,59.827324 121.486565,44.776329 121.486565,28.933798 
	C130.366898,28.933798 139.433456,28.933798 149.000000,28.933794 
M172.500046,31.797466 
	C163.014282,31.797476 153.528503,31.796803 144.042740,31.797716 
	C136.983170,31.798395 136.983170,31.799311 136.983154,38.630672 
	C136.983154,41.595821 136.983154,44.560966 136.983154,47.526115 
	C136.634064,47.300961 136.284988,47.075806 135.935898,46.850655 
	C133.941269,48.562351 131.946640,50.274052 129.952011,51.985748 
	C132.081161,53.773834 134.210312,55.561924 137.067932,57.961796 
	C137.067932,61.517418 137.067932,66.141800 137.067932,70.891479 
	C138.298538,71.175644 139.240204,71.581177 140.182663,71.583023 
	C160.152618,71.622200 180.122833,71.577950 200.092560,71.656967 
	C203.317749,71.669731 203.924088,70.131699 203.892899,67.314323 
	C203.778656,56.997730 203.676056,46.674782 203.935211,36.363426 
	C204.034683,32.405689 202.483215,31.642637 198.960205,31.729679 
	C190.478104,31.939238 181.987335,31.797474 172.500046,31.797466 
z"/>
<path fill="#FFFFFF" opacity="1.000000" stroke="none" 
	d="
M98.852203,41.004570 
	C101.956047,40.621841 103.196678,41.367882 103.065010,44.399384 
	C102.820862,50.020718 102.995079,55.660229 102.995079,61.643433 
	C97.136078,61.643433 91.419296,61.643433 85.351128,61.643433 
	C85.351128,55.125286 85.351128,48.413162 85.351128,41.004520 
	C89.566437,41.004520 93.968582,41.004520 98.852203,41.004570 
z"/>
<path fill="#FFFFFF" opacity="1.000000" stroke="none" 
	d="
M230.026550,61.995491 
	C227.238297,61.995491 224.935257,61.995491 222.319275,61.995491 
	C222.319275,55.058994 222.319275,48.348713 222.319275,41.319412 
	C227.944397,41.319412 233.657761,41.319412 239.685333,41.319412 
	C239.685333,47.950115 239.685333,54.660107 239.685333,61.995491 
	C236.690048,61.995491 233.600891,61.995491 230.026550,61.995491 
z"/>
<path fill="#FFFFFF" opacity="1.000000" stroke="none" 
	d="
M254.072327,58.518867 
	C256.926514,58.084053 259.727783,58.084053 262.760254,58.084053 
	C262.760254,56.645363 262.760254,55.573669 262.760254,54.149746 
	C256.804077,54.255356 250.868149,52.478065 244.428009,53.958439 
	C244.015320,52.252239 244.017029,50.581882 244.071991,48.497494 
	C249.428070,48.055565 254.738190,48.168327 260.028168,47.893623 
	C261.239594,47.830719 262.381714,46.433250 263.555725,45.649990 
	C263.316162,45.098030 263.076599,44.546066 262.837067,43.994106 
	C260.231354,43.994106 257.625671,43.994106 254.572540,43.954987 
	C253.688400,41.894733 254.179672,40.884514 256.570740,40.959812 
	C261.519226,41.115646 266.476013,41.006798 271.709473,41.006798 
	C271.709473,48.006744 271.709473,54.718246 271.709473,61.990196 
	C266.453461,61.990196 261.195801,62.101334 255.954880,61.855694 
	C255.265900,61.823399 254.662476,59.965855 254.072327,58.518867 
z"/>
<path fill="#2563EB" opacity="1.000000" stroke="none" 
	d="
M173.000061,31.797443 
	C181.987335,31.797474 190.478104,31.939238 198.960205,31.729679 
	C202.483215,31.642637 204.034683,32.405689 203.935211,36.363426 
	C203.676056,46.674782 203.778656,56.997730 203.892899,67.314323 
	C203.924088,70.131699 203.317749,71.669731 200.092560,71.656967 
	C180.122833,71.577950 160.152618,71.622200 140.182663,71.583023 
	C139.240204,71.581177 138.298538,71.175644 137.067932,70.891479 
	C137.067932,66.141800 137.067932,61.517418 137.067932,57.961796 
	C134.210312,55.561924 132.081161,53.773834 129.952011,51.985748 
	C131.946640,50.274052 133.941269,48.562351 135.935898,46.850655 
	C136.284988,47.075806 136.634064,47.300961 136.983154,47.526115 
	C136.983154,44.560966 136.983154,41.595821 136.983154,38.630672 
	C136.983170,31.799311 136.983170,31.798395 144.042740,31.797716 
	C153.528503,31.796803 163.014282,31.797476 173.000061,31.797443 
M145.295685,49.188602 
	C148.447754,53.163799 148.103592,53.714451 140.466385,56.902256 
	C140.466385,60.657425 140.466385,64.412590 140.466385,68.237305 
	C160.489639,68.237305 180.223145,68.237305 200.109283,68.237305 
	C200.109283,57.009541 200.109283,46.128685 200.109283,35.091637 
	C180.075790,35.091637 160.338455,35.091637 140.389801,35.091637 
	C140.389801,39.285778 140.389801,43.217751 140.389801,47.310165 
	C141.808975,47.827869 143.188248,48.331020 145.295685,49.188602 
M142.858704,53.952972 
	C145.045135,52.935375 146.084793,51.208149 143.228912,50.362900 
	C139.584152,49.284164 135.542801,48.691978 132.317337,51.638462 
	C132.293747,52.210369 132.270172,52.782276 132.246597,53.354183 
	C135.501373,53.608265 138.756134,53.862350 142.858704,53.952972 
z"/>
<path fill="#FAFAFA" opacity="1.000000" stroke="none" 
	d="
M144.931610,49.011387 
	C143.188248,48.331020 141.808975,47.827869 140.389801,47.310165 
	C140.389801,43.217751 140.389801,39.285778 140.389801,35.091637 
	C160.338455,35.091637 180.075790,35.091637 200.109283,35.091637 
	C200.109283,46.128685 200.109283,57.009541 200.109283,68.237305 
	C180.223145,68.237305 160.489639,68.237305 140.466385,68.237305 
	C140.466385,64.412590 140.466385,60.657425 140.472687,56.898815 
	C148.103592,53.714451 148.447754,53.163799 144.931610,49.011387 
M177.989273,55.952747 
	C179.904541,54.625854 181.819809,53.298958 183.735077,51.972061 
	C181.469864,50.628044 179.328903,48.938866 176.895218,48.062889 
	C175.306305,47.490978 173.118591,47.659946 171.515030,48.294899 
	C169.686829,49.018814 168.209702,50.629414 166.580002,51.854660 
	C168.278030,53.190811 169.807877,54.921154 171.726700,55.739742 
	C173.292496,56.407726 175.323074,55.986195 177.989273,55.952747 
z"/>
<path fill="#2563EB" opacity="1.000000" stroke="none" 
	d="
M142.434814,54.034702 
	C138.756134,53.862350 135.501373,53.608265 132.246597,53.354183 
	C132.270172,52.782276 132.293747,52.210369 132.317337,51.638462 
	C135.542801,48.691978 139.584152,49.284164 143.228912,50.362900 
	C146.084793,51.208149 145.045135,52.935375 142.434814,54.034702 
z"/>
<path fill="#2563EB" opacity="1.000000" stroke="none" 
	d="
M177.568420,56.000240 
	C175.323074,55.986195 173.292496,56.407726 171.726700,55.739742 
	C169.807877,54.921154 168.278030,53.190811 166.580002,51.854660 
	C168.209702,50.629414 169.686829,49.018814 171.515030,48.294899 
	C173.118591,47.659946 175.306305,47.490978 176.895218,48.062889 
	C179.328903,48.938866 181.469864,50.628044 183.735077,51.972061 
	C181.819809,53.298958 179.904541,54.625854 177.568420,56.000240 
z"/>
</svg>