<svg version="1.1" id="Layer_1" xmlns="http://www.w3.org/2000/svg" xmlns:xlink="http://www.w3.org/1999/xlink" x="0px" y="0px"
	 width="100%" viewBox="0 0 700 128" enable-background="new 0 0 700 128" xml:space="preserve">
<path fill="#FEFEFE" opacity="1.000000" stroke="none" 
	d="
M522.000000,129.000000 
	C348.000000,129.000000 174.500000,129.000000 1.000000,129.000000 
	C1.000000,86.333336 1.000000,43.666668 1.000000,1.000000 
	C234.333328,1.000000 467.666656,1.000000 701.000000,1.000000 
	C701.000000,43.666668 701.000000,86.333336 701.000000,129.000000 
	C641.500000,129.000000 582.000000,129.000000 522.000000,129.000000 
M461.500000,119.004570 
	C474.995728,119.004570 488.513550,118.533112 501.979797,119.163185 
	C511.650848,119.615700 520.231628,117.687141 528.453857,112.671669 
	C532.793335,110.024658 537.553040,107.098259 542.410583,106.448784 
	C557.582214,104.420311 572.892029,103.430077 588.145935,102.011856 
	C609.659058,100.011681 631.170105,97.988663 652.782593,95.965996 
	C652.782593,78.233902 652.782593,60.804974 652.782593,43.523838 
	C650.177795,42.959167 647.843140,42.231480 645.457397,41.970062 
	C620.798279,39.268009 596.144714,36.501968 571.461060,34.039852 
	C553.417053,32.240021 535.354919,30.813253 518.485657,23.238848 
	C516.451050,22.325300 513.979858,22.054878 511.709442,22.048687 
	C495.714905,22.005070 479.719971,22.132309 463.725128,22.158924 
	C446.615509,22.187393 429.505829,22.165344 412.003601,22.165344 
	C412.003601,17.068424 411.960205,12.098713 412.018188,7.130185 
	C412.059662,3.577456 410.388763,1.967648 406.851532,1.980639 
	C395.354889,2.022861 383.857727,2.041706 372.361359,1.970532 
	C368.556793,1.946977 366.896393,3.644021 366.971802,7.419061 
	C367.070801,12.375426 366.996094,17.335258 366.996094,22.810909 
	C364.615265,22.810909 362.660156,22.803411 360.705109,22.811991 
	C276.902100,23.179697 193.099289,23.645369 109.295898,23.786531 
	C99.628654,23.802814 90.671425,25.174868 81.766815,29.009163 
	C66.998604,35.368313 51.936417,41.044758 37.638733,46.753017 
	C37.638733,64.145859 37.638733,80.946861 37.638733,97.754913 
	C55.620083,104.402588 73.035332,110.917236 90.523247,117.230614 
	C93.412430,118.273643 96.619133,118.928650 99.680122,118.932404 
	C174.825729,119.024673 249.971481,119.004570 325.117218,119.004570 
	C326.931183,119.004570 328.745148,119.004578 331.115326,119.004578 
	C329.770691,124.412254 333.211670,124.030411 336.572968,124.024956 
	C360.232971,123.986534 383.893219,123.968506 407.553040,124.043877 
	C411.059143,124.055054 414.145782,124.067680 412.943054,119.004570 
	C429.204559,119.004570 444.852264,119.004570 461.500000,119.004570 
z"/>
<path fill="#2563EB" opacity="1.000000" stroke="none" 
	d="
M461.000000,119.004570 
	C444.852264,119.004570 429.204559,119.004570 412.943054,119.004570 
	C414.145782,124.067680 411.059143,124.055054 407.553040,124.043877 
	C383.893219,123.968506 360.232971,123.986534 336.572968,124.024956 
	C333.211670,124.030411 329.770691,124.412254 331.115326,119.004578 
	C328.745148,119.004578 326.931183,119.004570 325.117218,119.004570 
	C249.971481,119.004570 174.825729,119.024673 99.680122,118.932404 
	C96.619133,118.928650 93.412430,118.273643 90.523247,117.230614 
	C73.035332,110.917236 55.620083,104.402588 37.638733,97.754913 
	C37.638733,80.946861 37.638733,64.145859 37.638733,46.753017 
	C51.936417,41.044758 66.998604,35.368313 81.766815,29.009163 
	C90.671425,25.174868 99.628654,23.802814 109.295898,23.786531 
	C193.099289,23.645369 276.902100,23.179697 360.705109,22.811991 
	C362.660156,22.803411 364.615265,22.810909 366.996094,22.810909 
	C366.996094,17.335258 367.070801,12.375426 366.971802,7.419061 
	C366.896393,3.644021 368.556793,1.946977 372.361359,1.970532 
	C383.857727,2.041706 395.354889,2.022861 406.851532,1.980639 
	C410.388763,1.967648 412.059662,3.577456 412.018188,7.130185 
	C411.960205,12.098713 412.003601,17.068424 412.003601,22.165344 
	C429.505829,22.165344 446.615509,22.187393 463.725128,22.158924 
	C479.719971,22.132309 495.714905,22.005070 511.709442,22.048687 
	C513.979858,22.054878 516.451050,22.325300 518.485657,23.238848 
	C535.354919,30.813253 553.417053,32.240021 571.461060,34.039852 
	C596.144714,36.501968 620.798279,39.268009 645.457397,41.970062 
	C647.843140,42.231480 650.177795,42.959167 652.782593,43.523838 
	C652.782593,60.804974 652.782593,78.233902 652.782593,95.965996 
	C631.170105,97.988663 609.659058,100.011681 588.145935,102.011856 
	C572.892029,103.430077 557.582214,104.420311 542.410583,106.448784 
	C537.553040,107.098259 532.793335,110.024658 528.453857,112.671669 
	C520.231628,117.687141 511.650848,119.615700 501.979797,119.163185 
	C488.513550,118.533112 474.995728,119.004570 461.000000,119.004570 
M552.015442,45.102730 
	C547.998108,44.777702 543.980774,44.452679 539.178345,43.993183 
	C531.457825,41.474922 523.763000,38.872982 516.001160,36.489262 
	C513.664062,35.771530 511.139587,35.317390 508.702789,35.325058 
	C486.716492,35.394199 464.730896,35.651188 442.744629,35.743958 
	C329.137360,36.223316 215.529907,36.665543 101.922714,37.165794 
	C99.805016,37.175117 97.539108,37.351978 95.597458,38.106850 
	C81.519112,43.580173 67.475624,49.148094 53.523136,54.932186 
	C52.204758,55.478729 50.799572,57.706402 50.776356,59.174789 
	C50.642117,67.664757 51.064831,76.162987 50.960793,84.654282 
	C50.923740,87.678444 52.001740,88.973267 54.740456,89.956772 
	C68.020042,94.725685 81.212410,99.737068 94.478073,104.545593 
	C96.459557,105.263847 98.665802,105.697746 100.768280,105.698570 
	C236.873550,105.751656 372.978821,105.749886 509.084106,105.707954 
	C510.854950,105.707405 512.770996,105.464218 514.372498,104.767204 
	C523.934814,100.605339 533.424622,96.276718 543.750244,91.970367 
	C546.684998,91.640297 549.615417,91.263962 552.555359,90.989258 
	C559.976379,90.295822 567.396423,89.577812 574.828430,89.025032 
	C577.052185,88.859642 579.346558,89.503304 581.552063,89.261307 
	C587.060486,88.656906 592.516907,87.543846 598.031128,87.035774 
	C603.524475,86.529617 609.078369,86.696854 614.577454,86.233337 
	C621.774780,85.626671 628.944336,84.690697 636.944397,84.015923 
	C637.870422,83.223236 639.581726,82.449280 639.601135,81.634972 
	C639.798584,73.353203 639.771851,65.063850 639.607300,56.780594 
	C639.595947,56.208237 637.982544,55.667698 636.249878,55.047558 
	C608.453247,51.768105 580.656616,48.488651 552.015442,45.102730 
M401.424377,5.994348 
	C391.365753,5.994348 381.307098,5.994348 371.382599,5.994348 
	C371.382599,11.888763 371.382599,17.243176 371.382599,22.273426 
	C383.788422,22.273426 395.802490,22.273426 407.675171,22.273426 
	C407.675171,16.561569 407.675171,11.340398 407.675171,5.994348 
	C405.697388,5.994348 404.049500,5.994348 401.424377,5.994348 
M396.480042,119.005951 
	C376.199921,119.005951 355.919800,119.005951 335.639709,119.005951 
	C335.642212,119.231674 335.644745,119.457397 335.647278,119.683121 
	C359.882416,119.683121 384.117523,119.683121 408.352661,119.683121 
	C408.355865,119.457397 408.359070,119.231674 408.362305,119.005951 
	C404.731506,119.005951 401.100739,119.005951 396.480042,119.005951 
z"/>
<path fill="#FDFDFD" opacity="1.000000" stroke="none" 
	d="
M542.938721,92.004044 
	C533.424622,96.276718 523.934814,100.605339 514.372498,104.767204 
	C512.770996,105.464218 510.854950,105.707405 509.084106,105.707954 
	C372.978821,105.749886 236.873550,105.751656 100.768280,105.698570 
	C98.665802,105.697746 96.459557,105.263847 94.478073,104.545593 
	C81.212410,99.737068 68.020042,94.725685 54.740456,89.956772 
	C52.001740,88.973267 50.923740,87.678444 50.960793,84.654282 
	C51.064831,76.162987 50.642117,67.664757 50.776356,59.174789 
	C50.799572,57.706402 52.204758,55.478729 53.523136,54.932186 
	C67.475624,49.148094 81.519112,43.580173 95.597458,38.106850 
	C97.539108,37.351978 99.805016,37.175117 101.922714,37.165794 
	C215.529907,36.665543 329.137360,36.223316 442.744629,35.743958 
	C464.730896,35.651188 486.716492,35.394199 508.702789,35.325058 
	C511.139587,35.317390 513.664062,35.771530 516.001160,36.489262 
	C523.763000,38.872982 531.457825,41.474922 539.604004,44.447121 
	C540.059021,45.158131 540.088318,45.415207 539.653320,45.613953 
	C531.256226,44.761295 523.318542,44.012291 515.393127,43.150230 
	C512.247314,42.808048 511.650177,44.121628 512.476135,46.999905 
	C519.571960,47.684135 526.515076,48.252270 533.431946,49.048653 
	C540.593018,49.873158 547.728516,50.919075 554.417786,51.926682 
	C547.298279,51.991081 540.635254,52.065922 533.974731,51.968292 
	C531.373962,51.930168 529.918518,52.525520 529.960999,55.543293 
	C530.082886,64.202271 530.084656,72.865234 529.960999,81.524155 
	C529.916870,84.612183 531.508728,85.060478 534.039124,85.026939 
	C540.700012,84.938660 547.363708,84.944412 554.024292,85.042427 
	C555.332764,85.061691 556.632629,85.663330 557.493591,85.988243 
	C542.170898,87.281052 527.291077,88.581993 512.482666,89.876694 
	C511.217865,94.637283 514.115417,93.925056 516.575928,93.760223 
	C525.363281,93.171509 534.151062,92.588928 542.938721,92.004044 
M190.997223,63.535488 
	C190.997208,61.370022 190.791519,59.180458 191.041809,57.044315 
	C191.504074,53.098717 190.062195,51.783516 186.019714,51.913036 
	C177.033905,52.200935 168.031174,52.091316 159.038269,51.953461 
	C156.027237,51.907295 154.894409,52.900261 154.950806,55.981068 
	C155.103210,64.307007 155.097137,72.639191 154.953186,80.965431 
	C154.901062,83.980125 155.903458,85.097260 158.981674,85.049408 
	C168.307602,84.904434 177.638489,84.910660 186.964661,85.046684 
	C189.978745,85.090652 191.147324,84.096626 191.047211,81.015678 
	C190.868790,75.524521 190.997147,70.023392 190.997223,63.535488 
M307.994141,89.467621 
	C307.994141,73.930389 307.994141,58.393154 307.994141,42.855923 
	C307.760132,42.859848 307.526123,42.863773 307.292114,42.867699 
	C307.292114,62.026386 307.292114,81.185074 307.292114,100.343765 
	C307.526123,100.344780 307.760132,100.345795 307.994141,100.346817 
	C307.994141,97.048782 307.994141,93.750755 307.994141,89.467621 
M93.005859,68.500000 
	C93.005859,79.055244 93.005859,89.610497 93.005859,100.165741 
	C93.242439,100.160942 93.479027,100.156136 93.715607,100.151337 
	C93.715607,80.977966 93.715607,61.804600 93.715607,42.631229 
	C93.479027,42.629761 93.242439,42.628288 93.005859,42.626816 
	C93.005859,50.917877 93.005859,59.208939 93.005859,68.500000 
M116.005859,92.407288 
	C116.005859,95.021431 116.005859,97.635574 116.005859,100.249718 
	C116.246994,100.235374 116.488129,100.221031 116.729263,100.206680 
	C116.729263,81.000214 116.729263,61.793747 116.729263,42.587276 
	C116.488129,42.586472 116.246994,42.585667 116.005859,42.584862 
	C116.005859,58.867180 116.005859,75.149498 116.005859,92.407288 
M139.994141,90.452721 
	C139.994141,74.502914 139.994141,58.553112 139.994141,42.603310 
	C139.761826,42.604828 139.529526,42.606342 139.297211,42.607861 
	C139.297211,61.846832 139.297211,81.085808 139.297211,100.324776 
	C139.529526,100.326508 139.761826,100.328239 139.994141,100.329964 
	C139.994141,97.363914 139.994141,94.397865 139.994141,90.452721 
M192.005859,94.325615 
	C192.005859,96.317947 192.005859,98.310287 192.005859,100.302620 
	C192.253067,100.293121 192.500290,100.283623 192.747498,100.274124 
	C192.747498,81.026451 192.747498,61.778770 192.747498,42.531090 
	C192.500290,42.529827 192.253067,42.528564 192.005859,42.527302 
	C192.005859,59.474125 192.005859,76.420944 192.005859,94.325615 
M215.005859,79.499832 
	C215.005859,86.388283 215.005859,93.276733 215.005859,100.165192 
	C215.241409,100.157150 215.476974,100.149109 215.712524,100.141075 
	C215.712524,80.974487 215.712524,61.807903 215.712524,42.641319 
	C215.476974,42.640553 215.241409,42.639790 215.005859,42.639023 
	C215.005859,54.592655 215.005859,66.546288 215.005859,79.499832 
M238.005859,57.505550 
	C238.005859,71.726341 238.005859,85.947136 238.005859,100.167931 
	C238.242752,100.163864 238.479660,100.159790 238.716553,100.155724 
	C238.716553,80.979912 238.716553,61.804108 238.716553,42.628296 
	C238.479660,42.624771 238.242752,42.621246 238.005859,42.617725 
	C238.005859,47.248089 238.005859,51.878456 238.005859,57.505550 
M261.994141,49.628922 
	C261.994141,47.328220 261.994141,45.027519 261.994141,42.726818 
	C261.750366,42.739067 261.506592,42.751316 261.262817,42.763565 
	C261.262817,61.988476 261.262817,81.213387 261.262817,100.438301 
	C261.506592,100.439316 261.750366,100.440338 261.994141,100.441353 
	C261.994141,83.826141 261.994141,67.210930 261.994141,49.628922 
M284.005859,63.500172 
	C284.005859,75.723328 284.005859,87.946480 284.005859,100.169632 
	C284.242889,100.165001 284.479950,100.160370 284.716980,100.155746 
	C284.716980,80.979485 284.716980,61.803223 284.716980,42.626961 
	C284.479950,42.625767 284.242889,42.624577 284.005859,42.623383 
	C284.005859,49.249027 284.005859,55.874676 284.005859,63.500172 
M330.994080,97.097412 
	C330.994080,78.988937 330.994080,60.880470 330.994080,42.771996 
	C330.758759,42.774994 330.523407,42.777988 330.288086,42.780987 
	C330.288086,61.985306 330.288086,81.189621 330.288086,100.393944 
	C330.450287,100.399200 330.612488,100.404449 330.774689,100.409706 
	C330.847656,99.603088 330.920624,98.796471 330.994080,97.097412 
M489.994141,54.520409 
	C489.994141,50.617592 489.994141,46.714779 489.994141,42.811962 
	C489.758026,42.824818 489.521881,42.837669 489.285767,42.850525 
	C489.285767,62.021755 489.285767,81.192986 489.285767,100.364220 
	C489.521881,100.364731 489.758026,100.365242 489.994141,100.365753 
	C489.994141,85.415192 489.994141,70.464630 489.994141,54.520409 
M466.994141,87.485924 
	C466.994141,72.603691 466.994141,57.721458 466.994141,42.839222 
	C466.758118,42.843182 466.522095,42.847137 466.286072,42.851097 
	C466.286072,62.021809 466.286072,81.192520 466.286072,100.363235 
	C466.522095,100.365662 466.758118,100.368088 466.994141,100.370522 
	C466.994141,96.406540 466.994141,92.442566 466.994141,87.485924 
M443.005859,56.508820 
	C443.005859,71.060944 443.005859,85.613075 443.005859,100.165199 
	C443.242401,100.161171 443.478973,100.157135 443.715515,100.153107 
	C443.715515,80.979294 443.715515,61.805473 443.715515,42.631657 
	C443.478973,42.629543 443.242401,42.627426 443.005859,42.625309 
	C443.005859,46.921562 443.005859,51.217815 443.005859,56.508820 
M420.005859,63.500172 
	C420.005859,75.723328 420.005859,87.946480 420.005859,100.169632 
	C420.242889,100.165001 420.479950,100.160370 420.716980,100.155746 
	C420.716980,80.979485 420.716980,61.803223 420.716980,42.626961 
	C420.479950,42.625767 420.242889,42.624577 420.005859,42.623383 
	C420.005859,49.249027 420.005859,55.874676 420.005859,63.500172 
M397.005859,85.494644 
	C397.005859,90.387077 397.005859,95.279510 397.005859,100.171936 
	C397.241180,100.161186 397.476532,100.150429 397.711853,100.139679 
	C397.711853,80.974297 397.711853,61.808918 397.711853,42.643539 
	C397.476532,42.643124 397.241180,42.642712 397.005859,42.642300 
	C397.005859,56.593773 397.005859,70.545242 397.005859,85.494644 
M374.005859,53.532379 
	C374.005859,69.069595 374.005859,84.606812 374.005859,100.144028 
	C374.239868,100.140083 374.473877,100.136147 374.707886,100.132202 
	C374.707886,80.973557 374.707886,61.814911 374.707886,42.656261 
	C374.473877,42.655239 374.239868,42.654217 374.005859,42.653198 
	C374.005859,45.951225 374.005859,49.249252 374.005859,53.532379 
M351.994141,83.498016 
	C351.994141,69.941940 351.994141,56.385864 351.994141,42.829788 
	C351.756958,42.833984 351.519806,42.838181 351.282623,42.842377 
	C351.282623,62.019699 351.282623,81.197021 351.282623,100.374344 
	C351.519806,100.377312 351.756958,100.380280 351.994141,100.383247 
	C351.994141,95.087738 351.994141,89.792229 351.994141,83.498016 
z"/>
<path fill="#FCFCFC" opacity="1.000000" stroke="none" 
	d="
M637.114136,55.112358 
	C637.982544,55.667698 639.595947,56.208237 639.607300,56.780594 
	C639.771851,65.063850 639.798584,73.353203 639.601135,81.634972 
	C639.581726,82.449280 637.870422,83.223236 636.660767,83.598068 
	C636.503723,81.884430 636.630310,80.588646 636.791260,78.942039 
	C615.040100,80.867065 594.065918,82.767403 573.079407,84.520660 
	C570.661255,84.722687 568.174561,84.105530 565.836609,83.421036 
	C565.884155,73.023132 565.814758,63.072361 565.961426,52.787987 
	C566.500732,52.388718 566.832397,52.238598 567.146240,52.269417 
	C588.948853,54.410194 610.755432,56.513908 632.545349,58.777657 
	C635.647461,59.099934 637.381836,58.577183 637.114136,55.112358 
z"/>
<path fill="#F9F9F9" opacity="1.000000" stroke="none" 
	d="
M401.912994,5.994348 
	C404.049500,5.994348 405.697388,5.994348 407.675171,5.994348 
	C407.675171,11.340398 407.675171,16.561569 407.675171,22.273426 
	C395.802490,22.273426 383.788422,22.273426 371.382599,22.273426 
	C371.382599,17.243176 371.382599,11.888763 371.382599,5.994348 
	C381.307098,5.994348 391.365753,5.994348 401.912994,5.994348 
z"/>
<path fill="#2563EB" opacity="1.000000" stroke="none" 
	d="
M565.719666,83.868164 
	C568.174561,84.105530 570.661255,84.722687 573.079407,84.520660 
	C594.065918,82.767403 615.040100,80.867065 636.791260,78.942039 
	C636.630310,80.588646 636.503723,81.884430 636.251465,83.538300 
	C628.944336,84.690697 621.774780,85.626671 614.577454,86.233337 
	C609.078369,86.696854 603.524475,86.529617 598.031128,87.035774 
	C592.516907,87.543846 587.060486,88.656906 581.552063,89.261307 
	C579.346558,89.503304 577.052185,88.859642 574.828430,89.025032 
	C567.396423,89.577812 559.976379,90.295822 552.555359,90.989258 
	C549.615417,91.263962 546.684998,91.640297 543.344482,91.987198 
	C534.151062,92.588928 525.363281,93.171509 516.575928,93.760223 
	C514.115417,93.925056 511.217865,94.637283 512.482666,89.876694 
	C527.291077,88.581993 542.170898,87.281052 557.831543,85.990982 
	C560.981445,85.290627 563.350586,84.579399 565.719666,83.868164 
z"/>
<path fill="#2563EB" opacity="1.000000" stroke="none" 
	d="
M636.682007,55.079960 
	C637.381836,58.577183 635.647461,59.099934 632.545349,58.777657 
	C610.755432,56.513908 588.948853,54.410194 567.146240,52.269417 
	C566.832397,52.238598 566.500732,52.388718 565.585693,52.639854 
	C561.621033,52.506260 558.248169,52.187206 554.875244,51.868149 
	C547.728516,50.919075 540.593018,49.873158 533.431946,49.048653 
	C526.515076,48.252270 519.571960,47.684135 512.476135,46.999905 
	C511.650177,44.121628 512.247314,42.808048 515.393127,43.150230 
	C523.318542,44.012291 531.256226,44.761295 539.988220,45.760235 
	C543.528503,46.278488 546.269714,46.811253 549.010559,46.809139 
	C550.294128,46.808147 551.576843,45.774712 552.859985,45.209194 
	C580.656616,48.488651 608.453247,51.768105 636.682007,55.079960 
z"/>
<path fill="#FFFFFF" opacity="1.000000" stroke="none" 
	d="
M396.974976,119.005951 
	C401.100739,119.005951 404.731506,119.005951 408.362305,119.005951 
	C408.359070,119.231674 408.355865,119.457397 408.352661,119.683121 
	C384.117523,119.683121 359.882416,119.683121 335.647278,119.683121 
	C335.644745,119.457397 335.642212,119.231674 335.639709,119.005951 
	C355.919800,119.005951 376.199921,119.005951 396.974976,119.005951 
z"/>
<path fill="#C8C8C8" opacity="1.000000" stroke="none" 
	d="
M552.437744,45.155960 
	C551.576843,45.774712 550.294128,46.808147 549.010559,46.809139 
	C546.269714,46.811253 543.528503,46.278488 540.452515,45.818569 
	C540.088318,45.415207 540.059021,45.158131 539.996582,44.514359 
	C543.980774,44.452679 547.998108,44.777702 552.437744,45.155960 
z"/>
<path fill="#2563EB" opacity="1.000000" stroke="none" 
	d="
M554.417786,51.926682 
	C558.248169,52.187206 561.621033,52.506260 565.369690,52.973450 
	C565.814758,63.072361 565.884155,73.023132 565.836609,83.421036 
	C563.350586,84.579399 560.981445,85.290627 558.274414,85.999115 
	C556.632629,85.663330 555.332764,85.061691 554.024292,85.042427 
	C547.363708,84.944412 540.700012,84.938660 534.039124,85.026939 
	C531.508728,85.060478 529.916870,84.612183 529.960999,81.524155 
	C530.084656,72.865234 530.082886,64.202271 529.960999,55.543293 
	C529.918518,52.525520 531.373962,51.930168 533.974731,51.968292 
	C540.635254,52.065922 547.298279,51.991081 554.417786,51.926682 
M541.560547,56.000805 
	C539.123657,56.000805 536.686768,56.000805 534.269287,56.000805 
	C534.269287,64.607544 534.269287,72.678185 534.269287,80.729446 
	C543.610229,80.729446 552.680237,80.729446 561.727783,80.729446 
	C561.727783,72.386543 561.727783,64.315796 561.727783,56.000805 
	C555.154236,56.000805 548.848999,56.000805 541.560547,56.000805 
z"/>
<path fill="#2563EB" opacity="1.000000" stroke="none" 
	d="
M190.997223,64.030960 
	C190.997147,70.023392 190.868790,75.524521 191.047211,81.015678 
	C191.147324,84.096626 189.978745,85.090652 186.964661,85.046684 
	C177.638489,84.910660 168.307602,84.904434 158.981674,85.049408 
	C155.903458,85.097260 154.901062,83.980125 154.953186,80.965431 
	C155.097137,72.639191 155.103210,64.307007 154.950806,55.981068 
	C154.894409,52.900261 156.027237,51.907295 159.038269,51.953461 
	C168.031174,52.091316 177.033905,52.200935 186.019714,51.913036 
	C190.062195,51.783516 191.504074,53.098717 191.041809,57.044315 
	C190.791519,59.180458 190.997208,61.370022 190.997223,64.030960 
M186.999207,72.457428 
	C186.999207,67.031067 186.999207,61.604706 186.999207,56.304146 
	C177.321075,56.304146 168.249832,56.304146 159.305801,56.304146 
	C159.305801,64.682495 159.305801,72.754181 159.305801,80.692787 
	C168.684692,80.692787 177.755859,80.692787 186.999207,80.692787 
	C186.999207,78.071938 186.999207,75.756271 186.999207,72.457428 
z"/>
<path fill="#2563EB" opacity="1.000000" stroke="none" 
	d="
M307.994141,89.960175 
	C307.994141,93.750755 307.994141,97.048782 307.994141,100.346817 
	C307.760132,100.345795 307.526123,100.344780 307.292114,100.343765 
	C307.292114,81.185074 307.292114,62.026386 307.292114,42.867699 
	C307.526123,42.863773 307.760132,42.859848 307.994141,42.855923 
	C307.994141,58.393154 307.994141,73.930389 307.994141,89.960175 
z"/>
<path fill="#2563EB" opacity="1.000000" stroke="none" 
	d="
M93.005859,68.000000 
	C93.005859,59.208939 93.005859,50.917877 93.005859,42.626816 
	C93.242439,42.628288 93.479027,42.629761 93.715607,42.631229 
	C93.715607,61.804600 93.715607,80.977966 93.715607,100.151337 
	C93.479027,100.156136 93.242439,100.160942 93.005859,100.165741 
	C93.005859,89.610497 93.005859,79.055244 93.005859,68.000000 
z"/>
<path fill="#2563EB" opacity="1.000000" stroke="none" 
	d="
M116.005859,91.919556 
	C116.005859,75.149498 116.005859,58.867180 116.005859,42.584862 
	C116.246994,42.585667 116.488129,42.586472 116.729263,42.587276 
	C116.729263,61.793747 116.729263,81.000214 116.729263,100.206680 
	C116.488129,100.221031 116.246994,100.235374 116.005859,100.249718 
	C116.005859,97.635574 116.005859,95.021431 116.005859,91.919556 
z"/>
<path fill="#2563EB" opacity="1.000000" stroke="none" 
	d="
M139.994141,90.942268 
	C139.994141,94.397865 139.994141,97.363914 139.994141,100.329964 
	C139.761826,100.328239 139.529526,100.326508 139.297211,100.324776 
	C139.297211,81.085808 139.297211,61.846832 139.297211,42.607861 
	C139.529526,42.606342 139.761826,42.604828 139.994141,42.603310 
	C139.994141,58.553112 139.994141,74.502914 139.994141,90.942268 
z"/>
<path fill="#2563EB" opacity="1.000000" stroke="none" 
	d="
M192.005859,93.846695 
	C192.005859,76.420944 192.005859,59.474125 192.005859,42.527302 
	C192.253067,42.528564 192.500290,42.529827 192.747498,42.531090 
	C192.747498,61.778770 192.747498,81.026451 192.747498,100.274124 
	C192.500290,100.283623 192.253067,100.293121 192.005859,100.302620 
	C192.005859,98.310287 192.005859,96.317947 192.005859,93.846695 
z"/>
<path fill="#2563EB" opacity="1.000000" stroke="none" 
	d="
M215.005859,78.999878 
	C215.005859,66.546288 215.005859,54.592655 215.005859,42.639023 
	C215.241409,42.639790 215.476974,42.640553 215.712524,42.641319 
	C215.712524,61.807903 215.712524,80.974487 215.712524,100.141075 
	C215.476974,100.149109 215.241409,100.157150 215.005859,100.165192 
	C215.005859,93.276733 215.005859,86.388283 215.005859,78.999878 
z"/>
<path fill="#2563EB" opacity="1.000000" stroke="none" 
	d="
M238.005859,57.007187 
	C238.005859,51.878456 238.005859,47.248089 238.005859,42.617725 
	C238.242752,42.621246 238.479660,42.624771 238.716553,42.628296 
	C238.716553,61.804108 238.716553,80.979912 238.716553,100.155724 
	C238.479660,100.159790 238.242752,100.163864 238.005859,100.167931 
	C238.005859,85.947136 238.005859,71.726341 238.005859,57.007187 
z"/>
<path fill="#2563EB" opacity="1.000000" stroke="none" 
	d="
M261.994141,50.112320 
	C261.994141,67.210930 261.994141,83.826141 261.994141,100.441353 
	C261.750366,100.440338 261.506592,100.439316 261.262817,100.438301 
	C261.262817,81.213387 261.262817,61.988476 261.262817,42.763565 
	C261.506592,42.751316 261.750366,42.739067 261.994141,42.726818 
	C261.994141,45.027519 261.994141,47.328220 261.994141,50.112320 
z"/>
<path fill="#2563EB" opacity="1.000000" stroke="none" 
	d="
M284.005859,63.000244 
	C284.005859,55.874676 284.005859,49.249027 284.005859,42.623383 
	C284.242889,42.624577 284.479950,42.625767 284.716980,42.626961 
	C284.716980,61.803223 284.716980,80.979485 284.716980,100.155746 
	C284.479950,100.160370 284.242889,100.165001 284.005859,100.169632 
	C284.005859,87.946480 284.005859,75.723328 284.005859,63.000244 
z"/>
<path fill="#2563EB" opacity="1.000000" stroke="none" 
	d="
M330.993835,97.543633 
	C330.920624,98.796471 330.847656,99.603088 330.774689,100.409706 
	C330.612488,100.404449 330.450287,100.399200 330.288086,100.393944 
	C330.288086,81.189621 330.288086,61.985306 330.288086,42.780987 
	C330.523407,42.777988 330.758759,42.774994 330.994080,42.771996 
	C330.994080,60.880470 330.994080,78.988937 330.993835,97.543633 
z"/>
<path fill="#2563EB" opacity="1.000000" stroke="none" 
	d="
M489.994141,55.017239 
	C489.994141,70.464630 489.994141,85.415192 489.994141,100.365753 
	C489.758026,100.365242 489.521881,100.364731 489.285767,100.364220 
	C489.285767,81.192986 489.285767,62.021755 489.285767,42.850525 
	C489.521881,42.837669 489.758026,42.824818 489.994141,42.811962 
	C489.994141,46.714779 489.994141,50.617592 489.994141,55.017239 
z"/>
<path fill="#2563EB" opacity="1.000000" stroke="none" 
	d="
M466.994141,87.982254 
	C466.994141,92.442566 466.994141,96.406540 466.994141,100.370522 
	C466.758118,100.368088 466.522095,100.365662 466.286072,100.363235 
	C466.286072,81.192520 466.286072,62.021809 466.286072,42.851097 
	C466.522095,42.847137 466.758118,42.843182 466.994141,42.839222 
	C466.994141,57.721458 466.994141,72.603691 466.994141,87.982254 
z"/>
<path fill="#2563EB" opacity="1.000000" stroke="none" 
	d="
M443.005859,56.011444 
	C443.005859,51.217815 443.005859,46.921562 443.005859,42.625309 
	C443.242401,42.627426 443.478973,42.629543 443.715515,42.631657 
	C443.715515,61.805473 443.715515,80.979294 443.715515,100.153107 
	C443.478973,100.157135 443.242401,100.161171 443.005859,100.165199 
	C443.005859,85.613075 443.005859,71.060944 443.005859,56.011444 
z"/>
<path fill="#2563EB" opacity="1.000000" stroke="none" 
	d="
M420.005859,63.000244 
	C420.005859,55.874676 420.005859,49.249027 420.005859,42.623383 
	C420.242889,42.624577 420.479950,42.625767 420.716980,42.626961 
	C420.716980,61.803223 420.716980,80.979485 420.716980,100.155746 
	C420.479950,100.160370 420.242889,100.165001 420.005859,100.169632 
	C420.005859,87.946480 420.005859,75.723328 420.005859,63.000244 
z"/>
<path fill="#2563EB" opacity="1.000000" stroke="none" 
	d="
M397.005859,84.995682 
	C397.005859,70.545242 397.005859,56.593773 397.005859,42.642300 
	C397.241180,42.642712 397.476532,42.643124 397.711853,42.643539 
	C397.711853,61.808918 397.711853,80.974297 397.711853,100.139679 
	C397.476532,100.150429 397.241180,100.161186 397.005859,100.171936 
	C397.005859,95.279510 397.005859,90.387077 397.005859,84.995682 
z"/>
<path fill="#2563EB" opacity="1.000000" stroke="none" 
	d="
M374.005859,53.039829 
	C374.005859,49.249252 374.005859,45.951225 374.005859,42.653198 
	C374.239868,42.654217 374.473877,42.655239 374.707886,42.656261 
	C374.707886,61.814911 374.707886,80.973557 374.707886,100.132202 
	C374.473877,100.136147 374.239868,100.140083 374.005859,100.144028 
	C374.005859,84.606812 374.005859,69.069595 374.005859,53.039829 
z"/>
<path fill="#2563EB" opacity="1.000000" stroke="none" 
	d="
M351.994141,83.997368 
	C351.994141,89.792229 351.994141,95.087738 351.994141,100.383247 
	C351.756958,100.380280 351.519806,100.377312 351.282623,100.374344 
	C351.282623,81.197021 351.282623,62.019699 351.282623,42.842377 
	C351.519806,42.838181 351.756958,42.833984 351.994141,42.829788 
	C351.994141,56.385864 351.994141,69.941940 351.994141,83.997368 
z"/>
<path fill="#FFFFFF" opacity="1.000000" stroke="none" 
	d="
M542.052124,56.000805 
	C548.848999,56.000805 555.154236,56.000805 561.727783,56.000805 
	C561.727783,64.315796 561.727783,72.386543 561.727783,80.729446 
	C552.680237,80.729446 543.610229,80.729446 534.269287,80.729446 
	C534.269287,72.678185 534.269287,64.607544 534.269287,56.000805 
	C536.686768,56.000805 539.123657,56.000805 542.052124,56.000805 
z"/>
<path fill="#FFFFFF" opacity="1.000000" stroke="none" 
	d="
M186.999207,72.949013 
	C186.999207,75.756271 186.999207,78.071938 186.999207,80.692787 
	C177.755859,80.692787 168.684692,80.692787 159.305801,80.692787 
	C159.305801,72.754181 159.305801,64.682495 159.305801,56.304146 
	C168.249832,56.304146 177.321075,56.304146 186.999207,56.304146 
	C186.999207,61.604706 186.999207,67.031067 186.999207,72.949013 
z"/>
</svg>