<svg version="1.1" id="Layer_1" xmlns="http://www.w3.org/2000/svg" xmlns:xlink="http://www.w3.org/1999/xlink" x="0px" y="0px"
	 width="100%" viewBox="0 0 256 128" enable-background="new 0 0 256 128" xml:space="preserve">
<path fill="#FEFEFE" opacity="1.000000" stroke="none" 
	d="
M156.000000,129.000000 
	C104.000000,129.000000 52.500008,129.000000 1.000007,129.000000 
	C1.000005,86.333336 1.000005,43.666679 1.000002,1.000013 
	C86.333321,1.000008 171.666641,1.000008 257.000000,1.000004 
	C257.000000,43.666653 257.000000,86.333305 257.000000,128.999969 
	C223.500000,129.000000 190.000000,129.000000 156.000000,129.000000 
M140.828461,91.159187 
	C151.464798,89.268982 162.174911,87.716721 172.721222,85.414162 
	C191.365036,81.343681 209.908066,76.811790 228.495560,72.482903 
	C235.104996,70.943626 241.775558,69.624008 248.292984,67.765060 
	C249.781693,67.340439 251.675980,65.110664 251.692581,63.691929 
	C251.708069,62.367195 249.682358,60.674213 248.178543,59.768616 
	C246.526566,58.773777 244.479355,58.319675 242.543961,57.929516 
	C228.215866,55.041046 213.660980,53.016331 199.575455,49.236607 
	C162.715805,39.345646 125.558266,33.601562 87.184937,34.960724 
	C60.118496,35.919399 35.295345,43.699280 10.994274,54.504543 
	C6.243509,56.616936 4.905965,60.622936 5.128688,65.081932 
	C5.354505,69.602867 6.460843,74.153427 11.666640,75.816116 
	C34.721722,83.179703 57.309914,92.696869 82.108948,92.496925 
	C101.392273,92.341454 120.671745,91.706772 140.828461,91.159187 
z"/>
<path fill="#2563EB" opacity="1.000000" stroke="none" 
	d="
M140.390686,91.222130 
	C120.671745,91.706772 101.392273,92.341454 82.108948,92.496925 
	C57.309914,92.696869 34.721722,83.179703 11.666640,75.816116 
	C6.460843,74.153427 5.354505,69.602867 5.128688,65.081932 
	C4.905965,60.622936 6.243509,56.616936 10.994274,54.504543 
	C35.295345,43.699280 60.118496,35.919399 87.184937,34.960724 
	C125.558266,33.601562 162.715805,39.345646 199.575455,49.236607 
	C213.660980,53.016331 228.215866,55.041046 242.543961,57.929516 
	C244.479355,58.319675 246.526566,58.773777 248.178543,59.768616 
	C249.682358,60.674213 251.708069,62.367195 251.692581,63.691929 
	C251.675980,65.110664 249.781693,67.340439 248.292984,67.765060 
	C241.775558,69.624008 235.104996,70.943626 228.495560,72.482903 
	C209.908066,76.811790 191.365036,81.343681 172.721222,85.414162 
	C162.174911,87.716721 151.464798,89.268982 140.390686,91.222130 
M124.937859,43.420765 
	C111.619713,43.388725 98.301392,43.390564 84.983467,43.317276 
	C60.605091,43.183117 38.379780,51.450241 16.486921,60.928986 
	C15.083702,61.536522 13.387506,63.292339 13.301455,64.610214 
	C13.213228,65.961395 14.665933,68.341515 15.908579,68.711464 
	C33.393898,73.916870 50.680283,81.302795 68.563431,83.336555 
	C103.023544,87.255524 137.706314,86.144203 171.714218,77.513275 
	C186.512634,73.757553 201.328903,70.070229 216.163391,66.460014 
	C219.864914,65.559189 223.668472,65.077583 228.807846,64.155106 
	C217.562286,61.650410 207.822952,59.786129 198.248779,57.288639 
	C174.419418,51.072590 150.494064,45.463413 124.937859,43.420765 
z"/>
<path fill="#FBFBFB" opacity="1.000000" stroke="none" 
	d="
M125.400192,43.462734 
	C150.494064,45.463413 174.419418,51.072590 198.248779,57.288639 
	C207.822952,59.786129 217.562286,61.650410 228.807846,64.155106 
	C223.668472,65.077583 219.864914,65.559189 216.163391,66.460014 
	C201.328903,70.070229 186.512634,73.757553 171.714218,77.513275 
	C137.706314,86.144203 103.023544,87.255524 68.563431,83.336555 
	C50.680283,81.302795 33.393898,73.916870 15.908579,68.711464 
	C14.665933,68.341515 13.213228,65.961395 13.301455,64.610214 
	C13.387506,63.292339 15.083702,61.536522 16.486921,60.928986 
	C38.379780,51.450241 60.605091,43.183117 84.983467,43.317276 
	C98.301392,43.390564 111.619713,43.388725 125.400192,43.462734 
M171.037552,65.998497 
	C176.018524,65.996338 181.006454,65.833237 185.978043,66.048279 
	C189.324127,66.193024 189.402527,64.694244 188.556320,61.919712 
	C182.358856,61.919712 176.238968,61.919712 170.009720,61.060169 
	C169.963882,52.005936 169.963882,52.005894 160.794418,52.005466 
	C157.638092,52.005318 154.481766,51.999153 151.325455,52.006741 
	C144.510864,52.023117 144.021454,52.523777 144.005737,59.454422 
	C144.003479,60.451153 144.000671,61.447914 144.006104,62.444618 
	C144.095718,78.878136 142.159134,76.847755 158.675049,77.010063 
	C171.399277,77.135101 169.786819,76.892677 171.037552,65.998497 
M98.614906,49.960327 
	C97.162888,50.040325 95.710869,50.120319 94.099159,50.209114 
	C94.099159,60.217308 94.099159,69.922104 94.099159,79.768593 
	C108.822876,79.768593 123.213623,79.768593 137.743652,79.768593 
	C137.743652,69.778091 137.743652,60.061176 137.743652,49.960102 
	C124.832855,49.960102 112.214493,49.960102 98.614906,49.960327 
z"/>
<path fill="#2563EB" opacity="1.000000" stroke="none" 
	d="
M170.118927,66.080376 
	C169.786819,76.892677 171.399277,77.135101 158.675049,77.010063 
	C142.159134,76.847755 144.095718,78.878136 144.006104,62.444618 
	C144.000671,61.447914 144.003479,60.451153 144.005737,59.454422 
	C144.021454,52.523777 144.510864,52.023117 151.325455,52.006741 
	C154.481766,51.999153 157.638092,52.005318 160.794418,52.005466 
	C169.963882,52.005894 169.963882,52.005936 169.693069,61.552593 
	C167.059433,63.862003 167.340836,65.200882 170.118927,66.080376 
M148.004944,67.407379 
	C148.004944,69.169937 148.004944,70.932495 148.004944,72.714600 
	C154.275589,72.714600 159.984787,72.714600 165.711273,72.714600 
	C165.711273,67.053246 165.711273,61.676193 165.711273,56.290199 
	C159.714630,56.290199 154.005234,56.290199 148.004944,56.290199 
	C148.004944,59.858753 148.004944,63.149300 148.004944,67.407379 
z"/>
<path fill="#2563EB" opacity="1.000000" stroke="none" 
	d="
M99.105515,49.960213 
	C112.214493,49.960102 124.832855,49.960102 137.743652,49.960102 
	C137.743652,60.061176 137.743652,69.778091 137.743652,79.768593 
	C123.213623,79.768593 108.822876,79.768593 94.099159,79.768593 
	C94.099159,69.922104 94.099159,60.217308 94.099159,50.209114 
	C95.710869,50.120319 97.162888,50.040325 99.105515,49.960213 
M136.695999,71.378448 
	C136.695999,64.955688 136.695999,58.532925 136.695999,52.154716 
	C122.539772,52.154716 109.138245,52.154716 95.605270,52.154716 
	C95.605270,60.908401 95.605270,69.321526 95.605270,77.939667 
	C109.309601,77.939667 122.724838,77.939667 136.695831,77.939667 
	C136.695831,75.913612 136.695831,74.126602 136.695999,71.378448 
z"/>
<path fill="#2563EB" opacity="1.000000" stroke="none" 
	d="
M170.578247,66.039436 
	C167.340836,65.200882 167.059433,63.862003 169.747742,61.982365 
	C176.238968,61.919712 182.358856,61.919712 188.556320,61.919712 
	C189.402527,64.694244 189.324127,66.193024 185.978043,66.048279 
	C181.006454,65.833237 176.018524,65.996338 170.578247,66.039436 
z"/>
<path fill="#FFFFFF" opacity="1.000000" stroke="none" 
	d="
M148.004944,66.923615 
	C148.004944,63.149300 148.004944,59.858753 148.004944,56.290199 
	C154.005234,56.290199 159.714630,56.290199 165.711273,56.290199 
	C165.711273,61.676193 165.711273,67.053246 165.711273,72.714600 
	C159.984787,72.714600 154.275589,72.714600 148.004944,72.714600 
	C148.004944,70.932495 148.004944,69.169937 148.004944,66.923615 
z"/>
<path fill="#EBEBEB" opacity="1.000000" stroke="none" 
	d="
M136.695923,71.859024 
	C136.695831,74.126602 136.695831,75.913612 136.695831,77.939667 
	C122.724838,77.939667 109.309601,77.939667 95.605270,77.939667 
	C95.605270,69.321526 95.605270,60.908401 95.605270,52.154716 
	C109.138245,52.154716 122.539772,52.154716 136.695999,52.154716 
	C136.695999,58.532925 136.695999,64.955688 136.695923,71.859024 
M102.863625,68.087463 
	C102.863625,70.673622 102.863625,73.259781 102.863625,75.879379 
	C113.345619,75.879379 123.071167,75.879379 132.867676,75.879379 
	C132.867676,68.251083 132.867676,60.907108 132.867676,53.541824 
	C122.736000,53.541824 113.018593,53.541824 103.199837,53.541824 
	C103.020081,56.846561 102.858490,59.817345 102.035980,62.863316 
	C101.167328,63.685291 100.298676,64.507263 99.430023,65.329239 
	C100.517166,65.955650 101.604309,66.582062 102.863625,68.087463 
z"/>
<path fill="#2563EB" opacity="1.000000" stroke="none" 
	d="
M102.696907,62.788124 
	C102.858490,59.817345 103.020081,56.846561 103.199837,53.541824 
	C113.018593,53.541824 122.736000,53.541824 132.867676,53.541824 
	C132.867676,60.907108 132.867676,68.251083 132.867676,75.879379 
	C123.071167,75.879379 113.345619,75.879379 102.863625,75.879379 
	C102.863625,73.259781 102.863625,70.673622 103.183868,67.624840 
	C103.774887,67.179268 104.045662,67.196327 104.242233,67.637390 
	C104.168030,70.141853 104.168030,72.222298 104.168030,74.317307 
	C113.666939,74.317307 122.589912,74.317307 131.620987,74.317307 
	C131.620987,67.790146 131.620987,61.571526 131.620987,55.433792 
	C122.257011,55.433792 113.220375,55.433792 103.969116,55.433792 
	C104.095261,58.150417 104.202934,60.469273 103.907181,62.812355 
	C103.234810,62.820431 102.965858,62.804279 102.696907,62.788124 
z"/>
<path fill="#2563EB" opacity="1.000000" stroke="none" 
	d="
M104.316444,67.213379 
	C104.045662,67.196327 103.774887,67.179268 103.097786,67.185349 
	C101.604309,66.582062 100.517166,65.955650 99.430023,65.329239 
	C100.298676,64.507263 101.167328,63.685291 102.366440,62.825722 
	C102.965858,62.804279 103.234810,62.820431 104.255920,62.872936 
	C105.687798,63.644772 106.367523,64.380249 107.047241,65.115730 
	C106.136971,65.814941 105.226707,66.514160 104.316444,67.213379 
z"/>
<path fill="#F6F6F6" opacity="1.000000" stroke="none" 
	d="
M104.242233,67.637390 
	C105.226707,66.514160 106.136971,65.814941 107.047241,65.115730 
	C106.367523,64.380249 105.687798,63.644772 104.659348,62.848709 
	C104.202934,60.469273 104.095261,58.150417 103.969116,55.433792 
	C113.220375,55.433792 122.257011,55.433792 131.620987,55.433792 
	C131.620987,61.571526 131.620987,67.790146 131.620987,74.317307 
	C122.589912,74.317307 113.666939,74.317307 104.168030,74.317307 
	C104.168030,72.222298 104.168030,70.141853 104.242233,67.637390 
M119.688164,67.274719 
	C121.105072,66.653900 122.521988,66.033081 123.938896,65.412254 
	C123.594711,64.715935 123.301590,63.453934 122.897835,63.417488 
	C120.702217,63.219284 118.479317,63.323311 116.265808,63.323311 
	C116.145508,63.952412 116.025208,64.581512 115.904900,65.210617 
	C116.899490,65.859497 117.894073,66.508377 119.688164,67.274719 
z"/>
<path fill="#2563EB" opacity="1.000000" stroke="none" 
	d="
M119.288414,67.215988 
	C117.894073,66.508377 116.899490,65.859497 115.904900,65.210617 
	C116.025208,64.581512 116.145508,63.952412 116.265808,63.323311 
	C118.479317,63.323311 120.702217,63.219284 122.897835,63.417488 
	C123.301590,63.453934 123.594711,64.715935 123.938896,65.412254 
	C122.521988,66.033081 121.105072,66.653900 119.288414,67.215988 
z"/>
</svg>