<svg version="1.1" id="Layer_1" xmlns="http://www.w3.org/2000/svg" xmlns:xlink="http://www.w3.org/1999/xlink" x="0px" y="0px"
	 width="100%" viewBox="0 0 880 160" enable-background="new 0 0 880 160" xml:space="preserve">
<path fill="#DC2626" opacity="1.000000" stroke="none" 
	d="
M1.000000,60.468658 
	C2.773116,64.609680 1.951787,69.416687 1.883514,74.122437 
	C1.795711,80.174301 2.578115,86.259460 1.206812,92.641830 
	C1.000000,82.312439 1.000000,71.624878 1.000000,60.468658 
z"/>
<path fill="#DC2626" opacity="1.000000" stroke="none" 
	d="
M774.746826,127.871918 
	C767.361084,128.632355 767.358521,128.632355 767.349548,135.620743 
	C767.342712,140.953369 767.403442,146.286896 767.323547,151.618362 
	C767.245361,156.837616 764.989624,159.416855 759.847473,159.639191 
	C755.367004,159.832932 750.832825,159.788040 746.380005,159.311005 
	C742.523804,158.897888 740.714844,156.127136 740.690186,152.295303 
	C740.650391,146.129684 740.567871,139.961792 740.694336,133.798782 
	C740.755737,130.806625 739.847717,129.751038 736.643311,129.899185 
	C728.326233,130.283691 719.990112,130.321747 711.660889,130.371582 
	C565.188599,131.248001 418.714508,131.404205 272.240326,131.312408 
	C254.267883,131.301147 236.498947,128.319031 218.722107,125.919662 
	C183.328995,121.142609 148.620453,112.639069 113.484192,106.458473 
	C112.034782,106.203522 110.535156,106.233986 108.335976,106.081276 
	C108.335976,114.766022 108.341743,123.209862 108.334320,131.653687 
	C108.327179,139.768463 106.781578,141.335571 98.781509,141.348282 
	C94.282127,141.355438 89.781418,141.411072 85.283646,141.324142 
	C79.930855,141.220703 77.741188,139.080704 77.686478,133.664658 
	C77.588860,124.000214 77.547791,114.332466 77.704178,104.669685 
	C77.759911,101.225929 76.764374,99.678200 73.084602,99.141785 
	C64.765785,97.929092 56.529331,96.151375 48.371281,94.624428 
	C46.507351,98.206612 48.161999,101.616852 46.445797,105.019203 
	C36.227314,103.313545 25.929737,101.765442 15.702455,99.843315 
	C3.566704,97.562515 3.617143,97.422935 3.591688,85.206413 
	C3.575372,77.375481 3.511165,69.544159 3.388976,61.714245 
	C3.354006,59.473358 3.602481,57.875874 6.436720,57.663303 
	C18.700146,56.743530 30.954229,55.696709 43.208141,54.654160 
	C46.553848,54.369518 48.771893,55.083294 48.379055,59.160580 
	C48.094246,62.116650 49.563675,62.795650 52.423798,62.238808 
	C59.428459,60.875050 66.471619,59.657417 73.543839,58.715477 
	C76.774117,58.285240 77.711693,56.783241 77.680946,53.780499 
	C77.585403,44.449413 77.607216,35.116379 77.670349,25.784683 
	C77.712151,19.605618 79.605354,17.725067 85.729034,17.659731 
	C90.894371,17.604616 96.063065,17.563622 101.226158,17.687595 
	C106.076836,17.804064 108.221054,19.903185 108.302574,24.767544 
	C108.431007,32.431107 108.513069,40.103344 108.281631,47.761837 
	C108.158630,51.832199 109.605690,53.179863 113.568489,52.484493 
	C137.603790,48.266930 161.608292,43.845070 185.711288,40.052010 
	C202.267227,37.446617 218.952362,35.633251 235.603531,33.667118 
	C287.072662,27.589750 338.748535,31.424168 390.324677,30.735397 
	C501.448944,29.251390 612.585449,29.706757 723.717773,29.660599 
	C728.047668,29.658802 732.406799,29.550669 736.698425,30.003029 
	C740.069641,30.358372 740.731079,28.956362 740.680176,26.086014 
	C740.579773,20.422016 740.577148,14.752998 740.694641,9.089390 
	C740.802185,3.905711 742.855591,1.826071 748.002258,1.666124 
	C752.164062,1.536784 756.336853,1.547355 760.498535,1.684513 
	C764.868530,1.828537 767.269958,4.172012 767.313721,8.617421 
	C767.372803,14.616064 767.570496,20.627298 767.266418,26.610661 
	C767.063171,30.611717 768.635925,31.686972 772.400452,31.953650 
	C789.654541,33.175919 806.738159,35.857327 823.574219,39.711636 
	C839.230957,43.295959 854.765381,48.308514 866.244385,60.005398 
	C872.275574,66.150970 877.403625,73.745735 874.731201,84.447433 
	C871.917664,95.714279 864.735596,101.982361 855.445740,107.005661 
	C838.633484,116.096611 819.726257,118.342361 801.636719,123.225655 
	C792.991699,125.559387 784.244690,127.691162 774.746826,127.871918 
M666.500000,37.283012 
	C575.538086,37.465076 484.569244,36.432819 393.616852,38.302910 
	C337.771667,39.451157 281.782562,34.647121 226.089996,42.261726 
	C212.483124,44.122131 198.821396,45.629223 185.264679,47.797592 
	C162.710571,51.405079 140.234879,55.499866 117.700386,59.233860 
	C93.854218,63.185200 69.963760,66.870644 46.128532,70.885292 
	C42.074272,71.568161 40.449581,70.580711 40.711521,66.486969 
	C40.861717,64.139549 40.585670,61.949345 37.306934,62.440212 
	C30.254950,63.495983 23.166643,64.155960 16.038664,64.264679 
	C12.663430,64.316154 11.230973,65.932693 11.263193,69.223541 
	C11.317034,74.722755 11.640246,80.255753 11.156357,85.713013 
	C10.718668,90.649231 13.099987,92.108574 17.288578,92.657364 
	C22.543911,93.345917 27.789062,94.166710 32.996254,95.153831 
	C38.990635,96.290184 39.497307,96.094994 39.680367,89.855141 
	C39.777962,86.528145 40.813828,85.528275 44.246700,86.173439 
	C63.930531,89.872826 83.690262,93.175034 103.350151,96.993446 
	C129.992996,102.168114 156.715286,106.918037 183.280884,112.521797 
	C198.971191,115.831520 214.902359,118.006554 230.858734,119.881584 
	C247.496429,121.836670 264.072205,123.920273 280.904694,123.785080 
	C375.199554,123.027756 469.499207,124.703606 563.797241,122.847015 
	C623.581055,121.669960 683.398193,124.021324 743.184143,121.774048 
	C752.980286,121.405807 762.782959,121.174103 772.571899,120.671440 
	C777.029358,120.442551 781.544617,120.087959 785.888428,119.131088 
	C799.494202,116.133942 813.081116,113.020439 826.579773,109.577339 
	C839.605896,106.254776 852.665527,102.914459 862.573975,92.693672 
	C866.747620,88.388428 868.871826,79.475731 866.659424,73.856941 
	C862.514771,63.330620 853.366760,58.163235 844.021545,54.122013 
	C833.729919,49.671524 822.708252,47.144062 811.599548,44.812134 
	C785.619446,39.358440 759.270142,38.626312 732.989685,37.468849 
	C711.199341,36.509148 689.332764,37.279648 666.500000,37.283012 
M100.656090,111.698868 
	C100.616180,103.393806 100.616180,103.393150 92.370277,103.374886 
	C91.203911,103.372299 90.037086,103.401756 88.871239,103.378349 
	C85.744690,103.315567 84.314995,104.827477 84.347748,107.957153 
	C84.403542,113.288628 84.320198,118.621414 84.353592,123.953285 
	C84.427551,135.762985 82.755699,134.543976 95.547722,134.671509 
	C99.136536,134.707275 100.746643,133.290421 100.674805,129.649063 
	C100.563087,123.985970 100.652100,118.318909 100.656090,111.698868 
M84.349495,43.447380 
	C84.347855,55.522297 84.343262,55.452034 96.082657,54.684387 
	C99.195679,54.480824 100.655907,53.191612 100.640884,50.099346 
	C100.618248,45.442535 100.653297,40.785473 100.653961,36.128517 
	C100.655579,24.678215 100.404778,24.516592 88.851891,25.352533 
	C85.733894,25.578146 84.318008,26.901209 84.351685,29.991272 
	C84.396988,34.148750 84.354652,38.307178 84.349495,43.447380 
M759.647400,19.476334 
	C759.641663,17.315201 759.527832,15.147802 759.652710,12.994243 
	C759.909180,8.572992 757.099304,8.315577 753.796448,8.351752 
	C750.468506,8.388204 747.248657,8.233405 747.345276,13.008567 
	C747.432678,17.329035 747.357483,21.652742 747.359131,25.975019 
	C747.359741,27.500069 747.373047,29.183655 748.940125,29.903372 
	C751.768066,31.202127 754.863770,31.117189 757.666931,30.102594 
	C760.194458,29.187763 759.570862,26.530567 759.639832,24.419586 
	C759.683167,23.091064 759.647583,21.759966 759.647400,19.476334 
M747.346985,144.319092 
	C747.347961,144.984406 747.419312,145.658386 747.338684,146.313660 
	C746.752563,151.078400 749.467407,151.757065 753.407410,151.719391 
	C757.321960,151.681961 759.929321,150.937653 759.681458,146.249893 
	C759.479797,142.434647 759.630188,138.601028 759.614380,134.775604 
	C759.606201,132.806931 759.085327,131.204269 756.930298,130.527115 
	C750.681702,128.563644 747.381775,130.904572 747.349854,137.392014 
	C747.340027,139.387924 747.347595,141.383926 747.346985,144.319092 
z"/>
<path fill="#DC2626" opacity="1.000000" stroke="none" 
	d="
M663.000000,68.679382 
	C670.330994,68.710770 677.162842,68.682976 683.992676,68.788223 
	C690.031555,68.881287 692.099243,70.973259 692.224182,76.889610 
	C692.262817,78.721268 692.299805,80.559639 692.192139,82.386368 
	C691.935364,86.740654 689.582764,89.189949 685.210327,89.201111 
	C662.384827,89.259407 639.559021,89.252937 616.733459,89.215492 
	C612.269836,89.208176 610.103027,86.615379 609.808655,82.337059 
	C609.683167,80.512100 609.720215,78.672478 609.752930,76.840767 
	C609.857117,71.003906 612.022949,68.809677 618.015137,68.776932 
	C632.843140,68.695892 647.671692,68.705109 663.000000,68.679382 
M636.500854,74.427299 
	C631.168030,74.425156 625.834656,74.463913 620.502502,74.404137 
	C617.707458,74.372803 615.483337,74.871490 615.382996,78.324722 
	C615.274536,82.061295 617.617004,82.670197 620.627991,82.653305 
	C627.627136,82.614044 634.626709,82.647995 641.626099,82.647934 
	C654.291626,82.647827 666.957825,82.575157 679.622314,82.687408 
	C683.150452,82.718674 685.094849,81.692368 684.599609,77.828316 
	C684.150940,74.327232 681.577454,74.376976 678.996765,74.380325 
	C665.164673,74.398254 651.332581,74.412140 636.500854,74.427299 
z"/>
</svg>