<svg version="1.1" id="Layer_1" xmlns="http://www.w3.org/2000/svg" xmlns:xlink="http://www.w3.org/1999/xlink" x="0px" y="0px"
	 width="100%" viewBox="0 0 513 129" enable-background="new 0 0 513 129" xml:space="preserve">
<path fill="none" opacity="1.000000" stroke="#DC2626" stroke-linecap="round" stroke-linejoin="round" stroke-width="8.000000"
	d="
M502.500000,64.500000 
	C496.878082,58.688808 489.207458,58.384495 481.992249,57.041592 
	C469.222137,54.664814 456.331390,52.798748 443.474243,51.208115 
	C413.407166,47.488354 384.650604,37.922977 354.988800,32.561977 
	C336.198242,29.165821 317.451904,25.518263 298.512573,22.908850 
	C280.567993,20.436504 262.637421,18.650822 244.513306,17.736361 
	C222.485916,16.624954 200.477722,16.761433 178.505585,17.250740 
	C159.499542,17.673998 140.349106,17.970537 121.517525,21.105295 
	C106.598747,23.588718 92.002113,27.672373 77.498947,31.996458 
	C58.893353,37.543671 40.529099,43.759132 22.459997,50.898762 
	C16.129318,53.400196 12.400189,56.966713 11.359686,63.979179 
	C10.251459,71.448067 14.283227,79.541107 21.501381,81.995941 
	C52.951176,92.691727 85.176674,100.526833 117.499649,108.001511 
	C125.725830,109.903816 134.076614,110.499863 142.481110,111.220398 
	C153.179092,112.137558 163.867798,111.247856 174.492905,112.089493 
	C199.322754,114.056328 224.179123,113.071350 248.996628,112.743904 
	C263.523224,112.552231 278.058777,110.452721 292.537018,108.242577 
	C306.184357,106.159271 319.839142,104.015297 333.482880,101.889999 
	C346.229645,99.904427 358.830902,96.987488 371.500641,94.503326 
	C385.887146,91.682571 399.772186,86.891975 414.025604,83.611305 
	C425.201447,81.038986 436.609741,79.522179 447.988770,77.920158 
	C462.202209,75.919113 476.364319,73.501320 490.481049,70.897331 
	C494.698120,70.119453 499.103210,68.815697 501.500000,64.500000 
"/>
<path fill="none" opacity="1.000000" stroke="#DC2626" stroke-linecap="round" stroke-linejoin="round" stroke-width="5.000000"
	d="
M202.000000,65.500000 
	C202.000000,73.503471 202.000000,81.506943 202.000000,89.750000 
	C228.833328,89.750000 255.166672,89.750000 281.750000,89.750000 
	C281.750000,72.833336 281.750000,56.166668 281.750000,39.250000 
	C255.166672,39.250000 228.833328,39.250000 202.000000,39.250000 
	C202.000000,47.826668 202.000000,56.163334 202.000000,64.500000 
"/>
<path fill="none" opacity="1.000000" stroke="#DC2626" stroke-linecap="round" stroke-linejoin="round" stroke-width="5.000000"
	d="
M124.250000,74.000000 
	C125.796181,80.000000 125.796181,80.000000 132.500000,80.000000 
	C137.166672,80.000000 141.836227,79.901337 146.498871,80.038475 
	C149.129227,80.115852 150.078720,79.127205 150.040054,76.499413 
	C149.927307,68.834404 149.927292,61.165600 150.040039,53.500587 
	C150.078705,50.872795 149.128189,49.905293 146.499176,49.960346 
	C140.501801,50.085941 134.499054,49.937260 128.500412,50.027233 
	C125.626930,50.070335 123.998161,52.966640 124.513199,56.998314 
	C125.227318,62.588356 125.180618,68.166664 124.500000,73.750000 
"/>
<path fill="none" opacity="1.000000" stroke="#DC2626" stroke-linecap="round" stroke-linejoin="round" stroke-width="5.000000"
	d="
M338.750000,57.000000 
	C337.278381,50.999996 337.278381,50.999996 331.000000,51.000000 
	C326.166656,51.000000 321.330627,51.097019 316.501099,50.961308 
	C313.870911,50.887398 312.921295,51.872799 312.959930,54.500587 
	C313.072662,62.165600 313.072693,69.834404 312.959930,77.499413 
	C312.921295,80.127205 313.871796,81.094711 316.500824,81.039658 
	C322.498199,80.914062 328.500946,81.062881 334.499603,80.972717 
	C337.377411,80.929466 338.992310,78.071060 338.484650,74.001915 
	C337.797485,68.494209 337.796692,63.000000 338.500000,57.500000 
"/>
<path fill="none" opacity="1.000000" stroke="#DC2626" stroke-linecap="round" stroke-linejoin="round" stroke-width="5.000000"
	d="
M379.750000,57.000000 
	C378.278381,50.999996 378.278381,50.999996 372.000000,51.000000 
	C367.166656,51.000000 362.330627,51.097023 357.501099,50.961308 
	C354.870911,50.887398 353.921295,51.872799 353.959930,54.500587 
	C354.072662,62.165600 354.072693,69.834404 353.959930,77.499413 
	C353.921295,80.127205 354.871796,81.094704 357.500824,81.039650 
	C363.498199,80.914055 369.500946,81.062881 375.499603,80.972717 
	C378.377411,80.929466 379.992310,78.071045 379.484650,74.001915 
	C378.797485,68.494202 378.796692,63.000000 379.500000,57.500000 
"/>
<path fill="none" opacity="1.000000" stroke="#DC2626" stroke-linecap="round" stroke-linejoin="round" stroke-width="5.000000"
	d="
M401.000000,75.000000 
	C394.000000,75.000000 387.000000,75.000000 380.000000,75.000000 
"/>
<path fill="none" opacity="1.000000" stroke="#DC2626" stroke-linecap="round" stroke-linejoin="round" stroke-width="5.000000"
	d="
M401.000000,66.000000 
	C394.000000,66.000000 387.000000,66.000000 380.000000,66.000000 
"/>
<path fill="none" opacity="1.000000" stroke="#DC2626" stroke-linecap="round" stroke-linejoin="round" stroke-width="5.000000"
	d="
M401.000000,57.000000 
	C394.000000,57.000000 387.000000,57.000000 380.000000,57.000000 
"/>
<path fill="none" opacity="1.000000" stroke="#DC2626" stroke-linecap="round" stroke-linejoin="round" stroke-width="5.000000"
	d="
M123.500000,65.000000 
	C116.666664,65.000000 109.833336,65.000000 103.000000,65.000000 
"/>
<path fill="none" opacity="1.000000" stroke="#DC2626" stroke-linecap="round" stroke-linejoin="round" stroke-width="5.000000"
	d="
M123.500000,74.000000 
	C116.666664,74.000000 109.833336,74.000000 103.000000,74.000000 
"/>
<path fill="none" opacity="1.000000" stroke="#DC2626" stroke-linecap="round" stroke-linejoin="round" stroke-width="5.000000"
	d="
M123.500000,56.000000 
	C116.666664,56.000000 109.833336,56.000000 103.000000,56.000000 
"/>
<path fill="none" opacity="1.000000" stroke="#DC2626" stroke-linecap="round" stroke-linejoin="round" stroke-width="5.000000"
	d="
M360.000000,66.000000 
	C353.000000,66.000000 346.000000,66.000000 339.000000,66.000000 
"/>
<path fill="none" opacity="1.000000" stroke="#DC2626" stroke-linecap="round" stroke-linejoin="round" stroke-width="5.000000"
	d="
M360.000000,57.000000 
	C353.000000,57.000000 346.000000,57.000000 339.000000,57.000000 
"/>
<path fill="none" opacity="1.000000" stroke="#DC2626" stroke-linecap="round" stroke-linejoin="round" stroke-width="5.000000"
	d="
M360.000000,75.000000 
	C353.000000,75.000000 346.000000,75.000000 339.000000,75.000000 
"/>
<path fill="none" opacity="1.000000" stroke="#DC2626" stroke-linecap="round" stroke-linejoin="round" stroke-width="5.000000"
	d="
M180.000000,31.000000 
	C178.208588,31.250166 177.982483,32.473846 177.984177,34.000019 
	C178.007614,54.999992 177.996506,76.000008 178.021225,96.999977 
	C178.021805,97.499298 178.338379,97.998253 178.593201,98.750000 
	C217.166672,98.750000 255.833328,98.750000 294.750000,98.750000 
	C294.750000,76.166664 294.750000,53.833332 294.750000,31.000000 
	C256.501465,31.000000 218.500732,31.000000 180.500000,31.000000 
"/>
</svg>