<svg version="1.1" id="Layer_1" xmlns="http://www.w3.org/2000/svg" xmlns:xlink="http://www.w3.org/1999/xlink" x="0px" y="0px"
	 width="100%" viewBox="0 0 379 104" enable-background="new 0 0 379 104" xml:space="preserve">
<path fill="#FCFCFC" opacity="1.000000" stroke="none" 
	d="
M302.000000,105.000000 
	C201.333344,105.000000 101.166687,105.000000 1.000027,105.000000 
	C1.000018,70.333351 1.000018,35.666698 1.000009,1.000036 
	C127.333305,1.000024 253.666611,1.000024 379.999939,1.000012 
	C379.999939,35.666630 379.999939,70.333260 379.999969,104.999947 
	C354.166656,105.000000 328.333344,105.000000 302.000000,105.000000 
M374.000549,48.047714 
	C372.485077,47.698128 370.969604,47.348541 369.310486,46.831318 
	C369.310486,46.831318 368.986389,46.530827 369.930511,46.573639 
	C369.738678,45.338375 369.546814,44.103115 369.070618,42.234974 
	C365.228424,38.937515 361.779510,34.950123 357.460876,32.488533 
	C348.895355,27.606241 339.850067,23.565598 330.419189,18.750929 
	C311.606049,14.094182 293.011505,7.153708 273.927460,5.326791 
	C246.682419,2.718623 219.054642,2.925544 191.634735,3.638446 
	C160.209763,4.455478 128.826065,7.027823 97.438034,9.048503 
	C69.376038,10.855062 41.329815,12.912706 13.289288,15.027376 
	C11.967410,15.127064 9.951665,16.645493 9.633283,17.862663 
	C3.386032,41.745838 1.988875,65.682381 9.700928,89.934860 
	C25.547329,91.227982 41.600941,92.650383 57.672714,93.823975 
	C83.722610,95.726204 109.759804,98.056297 135.846634,99.143021 
	C182.025467,101.066742 228.260025,105.431717 274.414246,98.863625 
	C286.719238,97.112526 299.105560,95.270653 311.082886,92.076698 
	C321.790131,89.221420 332.014954,84.521461 342.390228,80.475426 
	C346.208496,78.986435 349.848145,77.039421 354.209076,75.141319 
	C363.346466,68.915260 371.897064,62.083389 377.898621,52.046612 
	C376.790924,51.017532 375.616516,49.926498 374.000549,48.047714 
z"/>
<path fill="#FDFDFD" opacity="1.000000" stroke="none" 
	d="
M368.986389,46.530827 
	C368.986389,46.530827 369.310486,46.831318 369.573517,47.208206 
	C370.823669,48.583057 371.810791,49.581020 372.889038,50.928162 
	C372.411621,52.681900 372.211182,54.468296 371.214691,55.428860 
	C364.888733,61.526615 358.386902,67.441933 351.581543,73.560837 
	C347.965363,74.954742 344.755493,76.340691 341.448456,77.432526 
	C326.169525,82.477005 311.794159,89.925232 295.631287,92.698715 
	C263.972382,98.131256 232.150330,100.275543 200.135162,98.783760 
	C159.388245,96.885109 118.660828,94.522209 77.943405,92.055725 
	C57.007317,90.787506 36.108044,88.897270 15.204389,87.142189 
	C13.891871,87.031982 11.750316,85.816345 11.575922,84.834198 
	C9.892223,75.351967 7.252336,65.784187 7.438027,56.290791 
	C7.663804,44.748058 10.413553,33.261581 11.932414,21.732454 
	C12.316483,18.817116 13.703739,17.973816 16.517962,17.794468 
	C67.531334,14.543424 118.539963,11.217008 169.546387,7.857921 
	C200.823196,5.798150 232.110031,5.143610 263.414276,7.082497 
	C269.540497,7.461938 275.797760,7.572938 281.725220,8.959417 
	C297.731812,12.703506 313.593201,17.068386 329.785065,21.443705 
	C334.592255,23.919825 339.191864,26.016399 343.646973,28.384787 
	C352.248016,32.957180 361.511292,36.596485 367.755310,45.040031 
	C368.234558,45.708443 368.610474,46.119633 368.986389,46.530827 
M64.963280,72.958984 
	C114.890106,72.958984 164.816925,72.958984 214.670700,72.958984 
	C215.483185,81.415237 213.480743,82.059654 224.198303,82.020210 
	C241.528992,81.956421 258.860992,81.912743 276.190399,82.076614 
	C280.463379,82.117004 282.134247,80.744263 282.082428,76.325417 
	C281.896820,60.496433 281.919250,44.663280 282.057037,28.833391 
	C282.093750,24.613630 280.698273,22.896317 276.281799,22.941029 
	C259.286011,23.113094 242.287247,23.033609 225.289780,22.987005 
	C213.931442,22.955862 215.136490,22.652351 214.846695,32.762653 
	C214.838806,33.037720 214.543411,33.304550 214.150955,33.962982 
	C213.077194,33.962982 211.773193,33.962540 210.469177,33.963043 
	C177.140396,33.975918 143.811600,33.971531 110.482849,34.009541 
	C94.989624,34.027206 79.496490,34.127258 63.231350,34.106903 
	C62.158249,35.537586 60.195206,36.944054 60.155506,38.402863 
	C59.884171,48.373714 59.998444,58.355618 60.031387,68.333817 
	C60.040024,70.950333 60.881111,72.951546 64.963280,72.958984 
z"/>
<path fill="#878787" opacity="1.000000" stroke="none" 
	d="
M329.512207,21.186954 
	C313.593201,17.068386 297.731812,12.703506 281.725220,8.959417 
	C275.797760,7.572938 269.540497,7.461938 263.414276,7.082497 
	C232.110031,5.143610 200.823196,5.798150 169.546387,7.857921 
	C118.539963,11.217008 67.531334,14.543424 16.517962,17.794468 
	C13.703739,17.973816 12.316483,18.817116 11.932414,21.732454 
	C10.413553,33.261581 7.663804,44.748058 7.438027,56.290791 
	C7.252336,65.784187 9.892223,75.351967 11.575922,84.834198 
	C11.750316,85.816345 13.891871,87.031982 15.204389,87.142189 
	C36.108044,88.897270 57.007317,90.787506 77.943405,92.055725 
	C118.660828,94.522209 159.388245,96.885109 200.135162,98.783760 
	C232.150330,100.275543 263.972382,98.131256 295.631287,92.698715 
	C311.794159,89.925232 326.169525,82.477005 341.448456,77.432526 
	C344.755493,76.340691 347.965363,74.954742 351.741364,73.962784 
	C352.698212,74.581306 353.133728,74.941322 353.569244,75.301331 
	C349.848145,77.039421 346.208496,78.986435 342.390228,80.475426 
	C332.014954,84.521461 321.790131,89.221420 311.082886,92.076698 
	C299.105560,95.270653 286.719238,97.112526 274.414246,98.863625 
	C228.260025,105.431717 182.025467,101.066742 135.846634,99.143021 
	C109.759804,98.056297 83.722610,95.726204 57.672714,93.823975 
	C41.600941,92.650383 25.547329,91.227982 9.700928,89.934860 
	C1.988875,65.682381 3.386032,41.745838 9.633283,17.862663 
	C9.951665,16.645493 11.967410,15.127064 13.289288,15.027376 
	C41.329815,12.912706 69.376038,10.855062 97.438034,9.048503 
	C128.826065,7.027823 160.209763,4.455478 191.634735,3.638446 
	C219.054642,2.925544 246.682419,2.718623 273.927460,5.326791 
	C293.011505,7.153708 311.606049,14.094182 330.655975,19.294369 
	C330.432587,20.287521 329.972382,20.737238 329.512207,21.186954 
z"/>
<path fill="#838383" opacity="1.000000" stroke="none" 
	d="
M329.785065,21.443705 
	C329.972382,20.737238 330.432587,20.287521 330.947937,19.507454 
	C339.850067,23.565598 348.895355,27.606241 357.460876,32.488533 
	C361.779510,34.950123 365.228424,38.937515 368.841125,42.783085 
	C368.291748,43.815063 367.971863,44.298935 367.651978,44.782810 
	C361.511292,36.596485 352.248016,32.957180 343.646973,28.384787 
	C339.191864,26.016399 334.592255,23.919825 329.785065,21.443705 
z"/>
<path fill="#8C8C8C" opacity="1.000000" stroke="none" 
	d="
M353.889160,75.221329 
	C353.133728,74.941322 352.698212,74.581306 352.102905,73.819351 
	C358.386902,67.441933 364.888733,61.526615 371.214691,55.428860 
	C372.211182,54.468296 372.411621,52.681900 373.075317,50.560188 
	C373.594360,49.507175 374.018250,49.171322 374.442139,48.835468 
	C375.616516,49.926498 376.790924,51.017532 377.898621,52.046612 
	C371.897064,62.083389 363.346466,68.915260 353.889160,75.221329 
z"/>
<path fill="#838383" opacity="1.000000" stroke="none" 
	d="
M374.221344,48.441589 
	C374.018250,49.171322 373.594360,49.507175 372.984192,50.211006 
	C371.810791,49.581020 370.823669,48.583057 369.645325,47.292023 
	C370.969604,47.348541 372.485077,47.698128 374.221344,48.441589 
z"/>
<path fill="#8C8C8C" opacity="1.000000" stroke="none" 
	d="
M367.755310,45.040028 
	C367.971863,44.298935 368.291748,43.815063 368.983307,43.099525 
	C369.546814,44.103115 369.738678,45.338375 369.458435,46.552231 
	C368.610474,46.119633 368.234558,45.708443 367.755310,45.040028 
z"/>
<path fill="#7E7E7E" opacity="1.000000" stroke="none" 
	d="
M64.003319,34.189960 
	C79.496490,34.127258 94.989624,34.027206 110.482849,34.009541 
	C143.811600,33.971531 177.140396,33.975918 210.469177,33.963043 
	C211.773193,33.962540 213.077194,33.962982 214.150955,33.962982 
	C214.543411,33.304550 214.838806,33.037720 214.846695,32.762653 
	C215.136490,22.652351 213.931442,22.955862 225.289780,22.987005 
	C242.287247,23.033609 259.286011,23.113094 276.281799,22.941029 
	C280.698273,22.896317 282.093750,24.613630 282.057037,28.833391 
	C281.919250,44.663280 281.896820,60.496433 282.082428,76.325417 
	C282.134247,80.744263 280.463379,82.117004 276.190399,82.076614 
	C258.860992,81.912743 241.528992,81.956421 224.198303,82.020210 
	C213.480743,82.059654 215.483185,81.415237 214.670700,72.958984 
	C164.816925,72.958984 114.890106,72.958984 64.628578,72.626434 
	C64.529900,71.601990 64.765930,70.910095 65.463440,70.130981 
	C115.464485,70.043762 165.004044,70.043762 214.616852,70.043762 
	C214.616852,58.690948 214.616852,47.998615 214.616852,37.016376 
	C212.918091,37.016376 211.605545,37.016682 210.292984,37.016327 
	C189.488098,37.010689 168.683197,37.023106 147.878342,36.994793 
	C120.252731,36.957195 92.627159,36.887810 64.975372,36.554451 
	C64.632889,35.851364 64.316597,35.425911 64.000153,35.000229 
	C64.000000,35.000000 63.999542,34.999687 64.000580,34.797256 
	C64.001625,34.594826 64.003319,34.189960 64.003319,34.189960 
M218.002121,65.491714 
	C218.002121,69.901886 218.002121,74.312057 218.002121,78.737343 
	C238.642929,78.737343 258.540863,78.737343 278.696838,78.737343 
	C278.696838,61.099770 278.696838,43.743320 278.696838,26.316629 
	C258.350037,26.316629 238.325638,26.316629 218.005035,26.316629 
	C218.005035,39.254787 218.005035,51.874947 218.002121,65.491714 
z"/>
<path fill="#808080" opacity="1.000000" stroke="none" 
	d="
M64.000305,35.000458 
	C64.316597,35.425911 64.632889,35.851364 64.564674,36.670750 
	C63.816963,37.544144 63.140976,38.020836 63.136707,38.503475 
	C63.049953,48.301571 62.994961,58.100842 63.101170,67.898064 
	C63.109627,68.678223 64.339630,69.445137 65.001953,70.218208 
	C64.765930,70.910095 64.529900,71.601990 64.169510,72.543198 
	C60.881111,72.951546 60.040024,70.950333 60.031387,68.333817 
	C59.998444,58.355618 59.884171,48.373714 60.155506,38.402863 
	C60.195206,36.944054 62.158249,35.537586 63.617332,34.148430 
	C64.003319,34.189960 64.001625,34.594826 63.864326,34.851288 
	C63.818119,35.071987 63.909210,35.036221 64.000305,35.000458 
z"/>
<path fill="#FEFEFE" opacity="1.000000" stroke="none" 
	d="
M65.463440,70.130981 
	C64.339630,69.445137 63.109627,68.678223 63.101170,67.898064 
	C62.994961,58.100842 63.049953,48.301571 63.136707,38.503475 
	C63.140976,38.020836 63.816963,37.544144 64.590866,36.948380 
	C92.627159,36.887810 120.252731,36.957195 147.878342,36.994793 
	C168.683197,37.023106 189.488098,37.010689 210.292984,37.016327 
	C211.605545,37.016682 212.918091,37.016376 214.616852,37.016376 
	C214.616852,47.998615 214.616852,58.690948 214.616852,70.043762 
	C165.004044,70.043762 115.464485,70.043762 65.463440,70.130981 
z"/>
<path fill="#FEFEFE" opacity="1.000000" stroke="none" 
	d="
M218.003571,64.993408 
	C218.005035,51.874947 218.005035,39.254787 218.005035,26.316629 
	C238.325638,26.316629 258.350037,26.316629 278.696838,26.316629 
	C278.696838,43.743320 278.696838,61.099770 278.696838,78.737343 
	C258.540863,78.737343 238.642929,78.737343 218.002121,78.737343 
	C218.002121,74.312057 218.002121,69.901886 218.003571,64.993408 
M239.015717,34.020828 
	C239.008270,45.987644 239.053741,57.954887 238.958160,69.920998 
	C238.932541,73.130524 239.907181,75.025764 243.426086,75.007660 
	C251.403442,74.966606 259.381256,74.966576 267.358643,75.002167 
	C270.757812,75.017326 272.051697,73.330124 272.031433,70.040131 
	C271.959808,58.406136 271.951996,46.771137 272.027435,35.137211 
	C272.050446,31.588070 270.596313,29.949484 266.986420,29.987104 
	C259.175629,30.068501 251.357010,29.847031 243.557098,30.149366 
	C242.041687,30.208103 240.596756,32.084316 239.015717,34.020828 
z"/>
<path fill="#7E7E7E" opacity="1.000000" stroke="none" 
	d="
M64.000153,35.000229 
	C63.909210,35.036221 63.818119,35.071987 63.863281,35.053719 
	C63.999542,34.999687 64.000000,35.000000 64.000153,35.000229 
z"/>
<path fill="#7F7F7F" opacity="1.000000" stroke="none" 
	d="
M239.067505,33.571510 
	C240.596756,32.084316 242.041687,30.208103 243.557098,30.149366 
	C251.357010,29.847031 259.175629,30.068501 266.986420,29.987104 
	C270.596313,29.949484 272.050446,31.588070 272.027435,35.137211 
	C271.951996,46.771137 271.959808,58.406136 272.031433,70.040131 
	C272.051697,73.330124 270.757812,75.017326 267.358643,75.002167 
	C259.381256,74.966576 251.403442,74.966606 243.426086,75.007660 
	C239.907181,75.025764 238.932541,73.130524 238.958160,69.920998 
	C239.053741,57.954887 239.008270,45.987644 239.067505,33.571510 
M268.834991,33.840969 
	C260.027740,33.445164 251.220459,33.049355 242.335846,32.650070 
	C242.335846,46.324612 242.335846,59.023499 242.335846,71.586151 
	C251.372269,71.586151 260.076111,71.586151 268.972809,71.586151 
	C268.972809,59.043476 268.972809,46.913231 268.834991,33.840969 
z"/>
<path fill="#FEFEFE" opacity="1.000000" stroke="none" 
	d="
M268.903900,34.311981 
	C268.972809,46.913231 268.972809,59.043476 268.972809,71.586151 
	C260.076111,71.586151 251.372269,71.586151 242.335846,71.586151 
	C242.335846,59.023499 242.335846,46.324612 242.335846,32.650070 
	C251.220459,33.049355 260.027740,33.445164 268.903900,34.311981 
z"/>
</svg>